<?xml version="1.0" encoding="UTF-8" standalone="no"?>
<svg
   xmlns:dc="http://purl.org/dc/elements/1.1/"
   xmlns:cc="http://creativecommons.org/ns#"
   xmlns:rdf="http://www.w3.org/1999/02/22-rdf-syntax-ns#"
   xmlns:svg="http://www.w3.org/2000/svg"
   xmlns="http://www.w3.org/2000/svg"
   xmlns:sodipodi="http://sodipodi.sourceforge.net/DTD/sodipodi-0.dtd"
   xmlns:inkscape="http://www.inkscape.org/namespaces/inkscape"
   width="100%"
   height="100%"
   viewBox="0 0 1024 660"
   version="1.1"
   id="svg403"
   sodipodi:docname="map_default_medium.svg"
   inkscape:version="0.92.3 (2405546, 2018-03-11)">
  <metadata
     id="metadata409">
    <rdf:RDF>
      <cc:Work
         rdf:about="">
        <dc:format>image/svg+xml</dc:format>
        <dc:type
           rdf:resource="http://purl.org/dc/dcmitype/StillImage" />
      </cc:Work>
    </rdf:RDF>
  </metadata>
  <defs
     id="defs407" />
  <sodipodi:namedview
     pagecolor="#ffffff"
     bordercolor="#666666"
     borderopacity="1"
     objecttolerance="10"
     gridtolerance="10"
     guidetolerance="10"
     inkscape:pageopacity="0"
     inkscape:pageshadow="2"
     inkscape:window-width="1366"
     inkscape:window-height="705"
     id="namedview405"
     showgrid="false"
     inkscape:zoom="0.67676768"
     inkscape:cx="512"
     inkscape:cy="396"
     inkscape:window-x="-8"
     inkscape:window-y="-8"
     inkscape:window-maximized="1"
     inkscape:current-layer="svg403" />
  <g
     id="sea"
     visibility="visible"
     fill="#b3ffff">
    <path
       style="stroke-width:0.80000001"
       d="m 0,0 v 660 l 1024,0 V 0 Z"
       id="path63"
       inkscape:connector-curvature="0"
       sodipodi:nodetypes="ccccc" />
    <g
       id="map"
       visibility="visible"
       stroke-width="1.5"
       fill="none">
      <g
         id="africa"
         visibility="visible"
         stroke="black"
         fill="#CEA252">
        <path
           class="country"
           id="east_africa"
           d="M532 514c-1,-6 -1,-12 -2,-17 5,-1 6,-8 7,-12 1,0 2,0 4,0 1,-8 11,-8 10,-19 -5,-1 -10,-2 -16,-2 0,-2 -1,-4 -2,-6 0,1 -1,2 -2,3 -7,-10 -12,-18 -16,-29 -1,-14 2,-24 4,-37 0,-1 0,-3 0,-4 1,0 2,0 4,0 -1,-3 -1,-3 1,-9 11,0 22,0 33,0 2,-3 2,-3 5,-4 7,11 9,26 14,38 1,1 2,1 3,1 2,5 3,9 5,14 -1,0 -2,0 -3,0 9,6 21,1 30,-1 0,0 0,1 1,2 -4,12 -9,23 -16,34 -15,12 -22,25 -33,39 0,7 0,14 1,21 -6,1 -11,2 -16,4 -2,6 -2,16 -2,18 -2,-1 -3,-1 -5,-1 0,-7 0,-15 0,-23 -2,-3 -5,-7 -7,-10 -1,0 -2,0 -2,0z" />
        <path
           class="country"
           id="egypt"
           d="M484 328c8,2 15,10 23,9 0,-4 0,-4 1,-7 12,-3 24,4 35,8 5,0 9,0 14,0 1,5 3,10 4,15 -2,0 -4,-1 -6,-1 2,9 5,17 7,26 -3,1 -3,1 -5,4 -11,0 -22,0 -33,0 -2,6 -2,6 -1,9 -2,0 -3,0 -4,0 0,1 0,3 0,4 -7,-2 -8,-7 -15,-9 0,-2 -1,-4 -2,-6 -12,-2 -19,-3 -28,-11 -1,-11 0,-19 -1,-29 1,-1 2,-1 2,-2 1,-2 1,-4 1,-7 4,-3 4,-3 8,-3z" />
        <path
           class="country"
           id="north_west_africa"
           d="M 480 306 C 462 307 459 308 452 308 C 445 311 436 317 429 312 L 428 312 C 423 319 421 322 414 326 C 410 341 410 345 397 351 C 395 356 392 370 387 371 C 384 380 385 390 385 399 C 382 408 382 415 384 424 L 387 424 L 387 427 L 389 427 C 391 433 395 447 401 449 C 412 464 421 456 437 457 L 437 454 C 442 454 446 453 451 453 C 453 454 453 454 455 460 C 461 460 461 460 468 463 C 467 467 467 469 468 473 C 466 478 466 479 462 482 C 462 490 468 496 473 502 C 479 503 480 504 488 505 C 491 510 491 510 492 514 C 493 513 495 513 496 513 C 496 512 497 511 497 510 C 499 510 501 511 503 511 C 509 529 501 526 524 531 L 524 535 L 528 535 C 527 530 527 524 526 519 L 529 519 C 530 517 531 516 532 514 C 531 508 531 502 530 497 C 535 496 536 489 537 485 L 541 485 C 542 477 552 477 551 466 C 546 465 541 464 535 464 C 535 462 534 460 533 458 C 533 459 532 460 531 461 C 524 451 519 443 515 432 C 514 418 517 408 519 395 C 512 393 511 388 504 386 C 504 384 503 382 502 380 C 490 378 483 377 474 369 C 473 358 474 350 473 340 C 474 339 475 339 475 338 C 476 336 476 334 476 331 C 480 328 480 328 484 328 L 478 325 L 478 322 C 475 322 475 322 475 321 L 479 321 C 479 317 480 314 478 311 C 479 311 479 311 480 310 L 480 306 z " />
        <path
           class="country"
           id="madagascar"
           d="M579 589c-5,-6 -4,-15 -1,-22 0,0 1,0 2,0 2,-15 1,-16 14,-21 6,-5 6,-5 7,-8 1,0 2,0 3,0 0,5 0,11 0,17 0,0 -1,0 -2,0 0,1 0,2 0,4 -1,0 -2,0 -3,0 -1,11 -9,26 -20,30z" />
        <path
           class="country"
           id="south_africa"
           d="M473 502c6,1 7,2 15,3 3,5 3,5 4,9 1,-1 3,-1 4,-1 0,-1 1,-2 1,-3 2,0 4,1 6,1 6,18 -2,15 21,20 0,1 0,3 0,4 1,0 2,0 4,0 -1,-5 -1,-11 -2,-16 1,0 2,0 3,0 1,-2 2,-3 3,-5 0,0 1,0 2,0 2,3 5,7 7,10 0,8 0,16 0,23 2,0 3,0 5,1 0,-2 0,-12 2,-18 5,-2 10,-3 16,-4 0,13 2,29 -13,33 -1,2 -1,2 -6,7 -1,9 0,19 -10,22 -2,13 -2,13 -3,18 -1,0 -2,0 -3,0 0,1 0,2 0,3 -1,0 -2,0 -3,0 -7,18 -20,18 -39,22 -2,-1 -4,-2 -5,-2 0,-2 0,-3 0,-4 0,0 1,0 2,0 0,-10 -1,-15 -6,-24 -1,-9 -2,-12 -5,-30 -4,-11 -8,-21 -2,-31 1,0 3,-1 4,-1 0,-8 -1,-16 -1,-24 1,0 2,-1 3,-1 0,-3 0,-7 -1,-11 -1,0 -2,0 -3,0 0,0 0,-1 0,-1z" />
      </g>
      <g
         id="asia"
         visibility="visible"
         stroke="black"
         fill="#BDDB8C">
        <path
           class="country"
           id="afghanistan"
           d="M651 310c-3,-4 -4,-5 -8,-7 -3,-8 -10,-4 -17,-3 0,-3 0,-5 -1,-7 -1,0 -2,-1 -3,-1 0,-3 0,-5 0,-8 1,0 2,-1 3,-1 0,-3 0,-6 0,-10 -1,0 -2,0 -3,0 1,4 1,4 0,7 -2,-1 -2,-1 -2,-9 -2,-1 -4,-2 -7,-3 1,-6 2,-7 5,-12 0,1 0,2 1,3 0,0 1,0 2,0 0,-3 0,-6 0,-9 -7,0 -11,1 -18,5 4,-14 -7,-21 0,-33 8,-5 22,-6 31,-7 0,1 1,2 1,3 11,-1 14,1 25,-6 0,-2 -1,-15 0,-15 10,0 21,-4 27,7 4,1 15,15 18,19 12,-1 10,9 15,16 -4,4 -5,5 -7,11 -11,3 -5,14 -16,18 0,1 0,2 0,3 -4,1 -7,1 -11,2 0,7 5,19 7,26 -3,1 -5,3 -7,5 -2,-3 -3,-5 -6,-5 0,-1 0,-2 0,-3 -5,-1 -7,-1 -9,4 -6,-1 -8,-1 -11,5 -3,1 -3,1 -9,5z" />
        <path
           class="country"
           id="south_asia"
           d="M 538 275 L 530 290 C 530 296 533 301 535 311 C 537 311 539 311 540 310 C 540 311 541 312 541 313 L 550 310 L 552 312 C 560 311 560 311 563 309 C 564 309 564 310 565 310 C 563 321 566 330 559 338 C 560 343 562 348 563 353 C 567 362 574 371 574 380 C 584 393 590 406 590 422 C 601 418 631 410 635 396 C 636 396 638 396 639 395 C 640 392 640 389 641 386 L 642 387 C 644 384 646 381 647 377 C 644 371 640 370 637 362 C 632 366 628 369 624 372 C 623 371 622 371 621 370 C 621 367 624 363 621 361 C 620 362 619 363 618 365 L 612 353 L 609 353 C 607 349 605 347 605 343 C 617 340 616 343 620 355 C 621 356 622 356 624 356 C 624 357 624 358 625 359 C 634 360 638 359 640 359 L 640 365 C 645 364 651 364 656 363 L 669 363 C 670 367 670 369 674 370 C 674 371 674 372 675 373 C 676 373 677 374 679 375 C 677 375 676 376 675 377 C 676 381 680 382 684 382 C 685 381 686 380 686 378 C 687 380 687 380 685 385 C 686 387 686 387 686 402 L 701 441 L 705 441 L 708 438 C 707 437 707 436 707 435 L 712 435 C 713 424 717 414 718 403 C 724 401 734 383 737 376 C 745 375 750 373 757 369 C 758 365 759 361 761 357 C 762 356 763 356 764 356 C 765 352 765 352 765 349 L 767 349 C 768 343 768 341 771 336 C 770 333 769 330 768 328 C 763 329 761 334 755 336 C 755 338 755 339 756 341 C 753 341 750 342 748 342 L 748 345 C 745 345 743 346 740 346 C 741 344 741 343 741 341 C 738 341 735 340 731 340 C 727 336 713 327 706 326 L 706 322 L 710 322 L 710 306 C 704 305 701 305 700 299 L 693 299 C 690 300 688 302 686 304 C 684 301 683 299 680 299 L 680 296 C 675 295 673 295 671 300 C 665 299 663 299 660 305 C 657 306 657 306 651 310 C 650.95244 310.28537 650.91814 310.55878 650.875 310.83984 C 647.98478 306.99739 646.93596 305.96798 643 304 C 640 296 634 300 627 301 L 627 305 C 621 307 617 306 610 305 C 609 302 609 302 608 294 C 603 296 603 296 599 296 C 598 294 596 291 595 289 L 591 289 C 591 287 591 285 590 283 C 586 281 586 281 585 280 C 577 282 573 281 571 282 C 566 275 560 278 551 278 L 551 281 L 543 281 C 541 279 540 277 538 275 z M 557 315 C 553 315 551 315 547 317 C 547 318 548 320 548 321 C 553 320 554 319 557 315 z M 710 438 C 710 441 709 445 709 448 C 711 449 712 451 713 452 C 715 451 716 450 718 449 C 718 444 717 443 714 438 L 710 438 z " />
        <path
           class="country"
           id="central_east_asia"
           d="M 830.57812 155.73438 C 821.625 155.875 819 157 813 157 C 811 159 810 162 808 164 C 804 165 800 166 797 166 C 794 169 794 169 789 172 C 781 183 775 207 786 217 C 786 221 785 224 787 228 C 786 229 786 230 786 232 C 791 238 791 243 794 250 C 797 250 799 251 802 251 L 802 260 C 812 262 829 261 836 271 C 840 268 842 265 845 263 C 847 267 846 267 846 272 C 850 270 853 270 858 270 C 857 274 858 274 860 277 C 860 276 861 276 861 275 C 864 279 864 280 863 285 C 868 285 870 283 874 280 C 874 273 869 266 863 263 L 863 260 C 868 255 868 251 872 245 L 873 246 L 878 246 C 881 240 885 234 889 229 C 886 227 884 226 881 225 C 881 223 880 222 880 220 C 879 220 877 220 876 219 L 876 217 L 867 217 C 864 208 857 209 855 199 C 855 199 854 198 853 198 C 854 188 858 178 859 168 C 854 165 853 165 851 159 C 848 159 845 159 843 158 C 842 157 842 156 842 156 C 837.25 155.75 833.5625 155.6875 830.57812 155.73438 z " />
        <path
           class="country"
           id="kamchatka"
           d="M853 198c1,-10 5,-20 6,-30 3,-11 12,-13 14,-24 3,0 5,-1 7,-1 0,-1 1,-2 1,-3 3,-1 5,-2 8,-2 1,1 1,3 2,5 2,1 4,1 6,2 0,1 0,2 1,3 2,-1 4,-2 6,-2 1,-3 2,-5 3,-7 1,0 2,0 4,0 0,-3 0,-6 0,-8 -3,-1 -6,-1 -8,-2 0,-3 1,-7 1,-10 7,-3 12,-7 19,-8 1,-2 2,-4 3,-5 1,-1 2,-1 3,-1 0,-1 0,-2 1,-3 4,0 24,8 28,4 -1,0 -3,0 -4,0 0,-1 0,-2 0,-3 -1,0 -2,0 -3,0 0,-1 0,-2 0,-3 6,0 12,0 18,0 1,2 1,3 1,4 2,-1 2,-1 6,-2 -1,1 -1,1 -2,2 2,1 2,1 7,1 8,5 8,5 11,6 2,4 4,5 7,8 0,-1 1,-2 1,-3 4,2 4,2 9,8 1,-1 2,-1 4,-1 -2,4 -2,4 -3,9 -1,0 -3,-1 -5,-1 0,1 0,2 0,2 1,1 3,1 4,1 -1,1 -1,1 -9,1 -2,-1 -2,-1 -2,-5 -1,0 -2,0 -3,-1 0,0 0,-1 0,-2 -3,0 -5,1 -8,1 0,-2 -1,-4 -2,-6 0,3 0,6 0,9 -3,0 -5,0 -8,0 0,1 0,2 0,2 2,1 4,1 6,1 0,2 -1,4 -1,6 1,0 2,0 3,0 0,2 0,4 0,5 -2,0 -4,0 -5,0 -1,-1 -1,-1 -1,-2 -5,3 -11,10 -14,15 -7,-1 -8,-2 -14,1 -1,-1 -2,-3 -3,-4 -1,1 -3,2 -4,4 1,0 2,0 2,1 0,3 -4,3 -4,5 1,0 2,0 3,0 -1,3 -2,5 -3,8 1,0 2,0 3,0 0,6 0,10 -5,12 0,7 -1,9 -4,16 -1,0 -2,1 -2,1 -4,-5 -7,-11 -10,-16 -2,-22 13,-23 19,-40 1,0 2,-1 3,-1 -3,0 -4,0 -7,2 0,1 0,1 1,2 -2,2 -4,4 -5,7 -2,0 -4,0 -5,0 -1,-2 -1,-4 -1,-6 -3,1 -6,1 -9,2 -1,3 -1,3 -2,8 1,0 2,1 3,1 0,1 0,2 0,3 -12,0 -40,-6 -44,6 -5,2 -8,8 -11,13 3,1 7,2 10,3 0,1 0,2 1,3 0,-1 1,-3 1,-4 2,0 4,0 6,1 6,13 7,28 5,43 -3,-2 -5,-3 -8,-4 0,-2 -1,-3 -1,-5 -1,0 -3,0 -4,-1 0,-1 0,-1 0,-2 -3,0 -6,0 -9,0 -3,-9 -10,-8 -12,-18 0,0 -1,-1 -2,-1z M962 99c-1,0 -2,-1 -3,-1 0,-1 1,-2 1,-3 3,-2 3,-2 7,-2 -2,2 -2,2 -3,6 -1,0 -2,0 -2,0z" />
        <path
           class="country"
           id="siam"
           d="M757 369c1,-4 2,-8 4,-12 1,-1 2,-1 3,-1 1,-4 1,-4 1,-7 0,0 1,0 2,0 1,-6 1,-8 4,-13 2,-1 3,-2 5,-2 3,8 3,9 0,16 1,0 3,0 4,0 0,1 0,2 0,3 1,-1 2,-1 2,-1 6,-10 14,-14 20,-3 -3,1 -5,3 -7,5 0,2 -1,5 -1,8 2,0 3,1 5,1 0,2 1,3 1,4 1,1 2,1 3,2 0,0 0,1 0,2 1,0 2,0 3,0 0,9 0,14 -3,21 -2,0 -4,0 -5,0 -2,4 -2,6 -6,8 -1,-2 -1,-2 -2,-6 -1,0 -2,0 -2,0 0,-2 0,-3 0,-4 -3,-1 -5,-1 -7,-2 0,-1 0,-1 0,-2 -1,0 -2,0 -4,0 0,-2 0,-3 0,-4 0,0 -1,0 -1,0 -1,11 -6,13 2,24 3,1 5,2 7,3 1,6 0,11 1,17 -1,0 -2,0 -4,0 -7,-6 -7,-8 -9,-18 0,0 -1,0 -2,0 -7,-12 2,-31 -14,-35 0,-2 0,-3 0,-4z" />
        <path
           class="country"
           id="china"
           d="M803 361c1,-2 1,-3 2,-5 2,0 5,0 7,-1 0,2 0,3 0,4 -3,1 -6,1 -9,2z M802 349c-6,-11 -14,-7 -20,3 0,0 -1,0 -2,1 0,-1 0,-2 0,-3 -1,0 -3,0 -4,0 3,-7 3,-8 0,-16 -2,0 -3,1 -5,2 -1,-3 -2,-6 -3,-8 -5,1 -7,6 -13,8 0,2 0,3 1,5 -3,0 -6,1 -8,1 0,1 0,2 0,3 -3,0 -5,1 -8,1 1,-2 1,-3 1,-5 -3,0 -6,-1 -10,-1 -4,-4 -18,-13 -25,-14 0,-1 0,-2 0,-4 1,0 2,0 4,0 0,-5 0,-11 0,-16 -6,-1 -9,-1 -10,-7 -2,0 -5,0 -7,0 -2,-7 -7,-19 -7,-26 4,-1 7,-1 11,-2 0,-1 0,-2 0,-3 11,-4 5,-15 16,-18 2,-6 3,-7 7,-11 10,3 27,19 38,11 12,7 30,13 44,10 10,2 27,1 34,11 -1,1 -1,1 -4,0 1,1 2,3 3,4 1,0 2,1 4,1 -1,1 -1,2 -1,3 3,0 5,-1 14,0 0,1 0,1 0,2 -6,2 -9,3 -13,6 3,3 3,3 4,6 3,1 3,1 5,2 -1,1 -2,1 -3,2 2,0 3,1 4,1 1,2 1,3 1,5 -2,0 -2,0 -2,1 1,0 1,0 2,0 0,1 0,2 0,4 -1,0 -1,0 -2,0 7,14 -23,43 -36,41 0,1 0,3 0,5 -5,-1 -5,-4 -10,-5z M841 345c1,-8 1,-8 3,-12 1,0 2,0 2,0 0,-1 0,-2 0,-3 2,0 3,0 4,0 -2,8 -2,11 -9,15z " />
        <path
           class="country"
           id="japan"
           d="M887 288c0,2 0,3 0,5 0,0 -1,0 -2,0 -1,2 -2,5 -2,7 -2,0 -3,1 -5,1 0,-5 2,-6 2,-10 -1,1 -3,1 -4,2 0,-2 0,-5 0,-8 8,1 8,1 11,3z M887 288c0,-1 -1,-2 -1,-3 4,-6 8,-7 14,-8 0,1 0,2 0,3 -3,5 -6,5 -11,9 0,-1 -1,-1 -2,-1z M900 280c0,-1 0,-2 0,-3 -1,0 -1,-1 -2,-2 -7,2 -13,8 -20,9 0,-1 0,-2 0,-3 5,-2 13,-10 16,-14 2,0 4,1 6,1 -2,-4 -1,-5 0,-9 1,0 2,0 3,0 -1,-7 -2,-9 -1,-15 3,0 3,0 5,1 0,-1 0,-3 0,-5 0,0 1,0 2,0 0,0 -1,-1 -1,-2 -1,0 -2,1 -3,1 0,-1 0,-2 0,-3 -2,2 -2,2 -1,6 -1,0 -3,0 -4,0 0,-2 0,-3 0,-5 2,-4 2,-4 5,-5 0,-1 -1,-3 -1,-5 -1,0 -2,-1 -3,-1 -3,-17 -12,-23 -8,-42 6,3 8,13 8,20 4,3 6,5 7,10 -1,0 -2,-1 -3,-1 0,7 1,13 7,17 0,1 0,2 0,2 1,0 3,0 5,0 0,3 1,5 1,7 -12,2 -3,13 -7,22 1,5 3,8 1,13 -2,0 -4,0 -5,1 0,2 0,3 0,5 -2,1 -5,2 -7,3 0,-1 0,-2 0,-3z " />
        <path
           class="country"
           id="russia"
           d="M 727.11523 44.455078 C 725.79688 44.390625 724.25 44.625 722 45 C 721 46 721 48 720 49 C 721 51 721 51 725 53 C 728 51 731 50 734 48 C 730.875 45.5 729.3125 44.5625 727.11523 44.455078 z M 725 53 L 718 53 C 717 57 717 57 718 59 C 721 59 722 57 726 57 C 726 55 725 54 725 53 z M 737.17383 50.367188 C 732.59375 50.25 729.625 51.5 729 59 C 734 61 734 61 744 62 C 745 57 745 57 747 54 L 747 51 C 743.25 51 739.92188 50.4375 737.17383 50.367188 z M 747 54 C 749 64 749 64 750 65 L 756 65 C 755 63 754 60 754 58 C 753 59 753 59 752 59 C 751 58 751 58 750 54 L 747 54 z M 757.48828 66.873047 C 755.625 66.84375 753.375 67.5 750 69 C 750 70 750 72 749 74 C 743 75 743 75 740 73 C 731 73 719 81 711 84 L 713 86 C 711 88 709 90 706 91 L 706 87 C 703 88 700 90 697 91 C 697 96 698 97 701 100 L 702 99 L 702 107 L 704 107 L 704 110 L 707 110 L 707 112 C 699 110 701 104 693 99 C 693 99 693 100 692 100 C 692 103 692 103 694 107 C 688 105 687 105 685 99 L 682 102 C 683 107 683 113 684 119 C 687 118 690 118 693 118 C 695 125 695 125 694 128 C 693 127 692 127 692 127 C 693 129 693 129 692 131 C 694 131 696 132 698 132 C 699 139 699 139 701 145 L 702 144 C 706 150 706 152 707 159 C 711 160 712 165 715 169 C 717 182 721 195 733 200 C 735 206 740 210 746 214 C 746 217 745 218 744 223 C 759 226 752 238 758 250 C 770 257 788 263 802 260 L 802 251 C 799 251 797 250 794 250 C 791 243 791 238 786 232 C 786 230 786 229 787 228 C 785 224 786 221 786 217 C 775 207 781 183 789 172 C 794 169 794 169 797 166 C 800 166 804 165 808 164 C 810 162 811 159 813 157 C 821 157 823 155 842 156 C 842 156 842 157 843 158 C 845 159 848 159 851 159 C 853 165 854 165 859 168 C 862 157 871 155 873 144 C 876 144 878 143 880 143 C 880 142 881 141 881 140 C 884 139 886 138 889 138 C 890 139 890 141 891 143 C 893 144 895 144 897 145 C 897 146 897 147 898 148 C 900 147 902 146 904 146 C 905 143 906 141 907 139 L 911 139 L 911 131 C 908 130 905 130 903 129 C 903 126 904 122 904 119 C 911 116 916 112 923 111 C 924 109 925 107 926 106 L 926 103 C 924 102 922 102 921 101 L 922 100 C 908 96 893 94 878 92 C 878 91 878 91 881 91 L 881 88 C 873 89 873 89 869 91 L 869 88 C 867 89 864 89 861 89 C 862 90 862 92 862 94 C 864 94 865 95 867 96 C 864 96 862 97 859 97 C 857 94 853 98 849 95 C 848 97 847 99 846 100 C 841 100 838 96 833 96 C 833 95 833 94 832 92 C 833 92 834 92 835 91 C 832 83 820 87 813 87 L 813 90 L 817 90 C 816 91 815 92 814 92 C 812 92 810 91 808 90 C 807 89 807 88 807 87 C 802 87 795 85 793 91 C 791 89 791 89 786 88 L 786 91 L 784 91 C 783 90 783 89 783 88 C 778 88 775 92 770 92 L 785 83 C 785 79 786 77 784 74 C 779 73 774 73 770 73 L 770 75 C 768 75 768 75 767 72 C 762.625 68.875 760.59375 66.921875 757.48828 66.873047 z M 848 71 C 847 72 847 73 847 74 L 842 74 L 842 77 C 846 79 855 84 857 77 C 855 76 853 76 852 75 C 851 74 851 73 851 72 C 850 72 849 72 848 71 z M 862 73 L 862 77 L 872 77 C 866 73 866 73 862 73 z M 859 83 C 858 84 857 86 857 87 C 862 86 863 85 868 84 C 867 83 867 83 859 83 z " />
        <path
           class="country"
           id="ural"
           d="M720 239c-5,-7 -3,-17 -15,-16 -3,-4 -14,-18 -18,-19 -6,-11 -17,-7 -27,-7 -1,-2 -1,-4 -2,-5 -1,-1 -3,-1 -4,-1 -1,-16 0,-33 -2,-50 -6,-10 0,-14 7,-22 0,-5 0,-9 1,-13 3,-4 3,-10 7,-14 4,3 8,5 12,7 -4,8 -7,12 1,17 0,5 0,10 -1,15 -3,2 -6,4 -9,6 6,0 6,0 13,-2 2,-4 2,-4 2,-11 1,0 3,0 4,0 1,1 2,2 3,3 1,2 1,2 0,4 2,0 4,1 6,1 1,7 1,7 3,13 0,0 1,-1 1,-1 4,6 4,8 5,15 4,1 5,6 8,10 2,13 6,26 18,31 2,6 7,10 13,14 0,3 -1,4 -2,9 15,3 8,15 14,27 -11,8 -28,-8 -38,-11z" />
      </g>
      <g
         id="australia"
         visibility="visible"
         stroke="black"
         fill="#E78A94">
        <path
           class="country"
           id="australian_territory"
           d="M 882 493 C 881 493 880 493 879 494 C 877 502 877 511 875 515 C 868 516 864 513 857 510 L 857 505 C 859 503 861 503 862 499 C 851 498 851 498 850 499 C 849 498 848 497 848 495 L 845 495 L 845 499 C 839 500 833 501 833 509 C 833 509 832 510 831 510 C 830 510 829 509 829 509 C 829 509 829 508 830 508 L 827 505 C 826 505 824 506 823 506 L 823 509 L 821 507 C 821 509 820 510 820 511 C 811 514 808 520 799 523 L 799 526 C 792 529 785 531 778 535 L 778 537 L 774 537 C 773 542 772 547 774 552 L 772 552 C 772 555 772 555 777 569 C 778 576 778 580 776 587 C 787 592 795 588 806 582 C 811 582 814 583 819 583 C 826 573 839 572 851 574 C 852 577 854 580 856 584 C 859 583 862 582 864 582 C 863 583 862 585 861 586 C 865 586 865 586 866 584 L 866 587 C 865 587 864 588 863 588 C 864 590 864 590 868 590 C 869 593 870 596 870 599 C 872 599 873 599 875 600 C 884 605 881 612 885 621 C 893 619 894 617 896 609 C 893 609 889 608 886 608 C 884 605 884 603 886 600 L 889 603 C 897 602 903 599 911 597 C 914 579 940 543 908 535 C 908 534 907 533 907 532 C 906 532 905 531 904 531 L 904 527 C 894 524 894 514 889 506 L 888 507 C 884 503 883 499 882 493 z M 964 522 C 964 529 969 535 965 542 C 970 547 971 548 972 556 C 974 556 976 555 978 555 C 983 547 983 547 985 540 L 982 534 C 982 535 981 535 981 536 C 979 536 976 535 974 535 C 973 534 972 532 971 531 L 970 532 C 967 529 967 525 964 522 z M 960 548 C 959 552 957 555 956 559 C 954 559 952 560 950 560 C 949 567 944 573 937 573 C 929 589 940 584 948 594 C 954 591 956 585 959 579 L 962 579 C 969 561 969 561 971 559 L 968 559 C 968 558 969 557 969 556 C 968 554 968 554 964 553 C 964 552 963 550 963 548 L 960 548 z " />
        <path
           class="country"
           id="new_guinea"
           d="M936 485c-2,-1 -5,-2 -8,-3 -2,-3 -2,-5 -6,-6 0,-1 0,-2 0,-3 -1,0 -2,0 -3,0 -1,8 -12,2 -18,1 1,-2 2,-4 3,-6 -1,-1 -2,-1 -3,-1 0,-1 0,-2 -1,-3 -2,-1 -4,-2 -6,-2 0,-1 1,-1 1,-2 -1,0 -2,0 -4,0 0,1 0,1 0,2 -1,0 -2,0 -3,-1 0,-1 0,-3 -1,-4 3,0 3,0 3,-1 -1,0 -3,0 -4,0 0,-2 0,-3 0,-4 -1,0 -2,-1 -2,-1 4,-4 9,-4 14,-2 -1,2 -2,4 -3,6 1,0 2,0 3,1 0,1 0,1 0,2 2,-1 4,-3 6,-4 0,-1 -1,-1 -1,-2 2,-2 21,8 24,10 1,2 2,4 3,6 1,0 2,0 3,1 0,1 0,2 1,3 -2,0 -3,0 -4,0 1,2 1,3 2,5 1,0 2,0 3,0 0,1 0,3 0,4 1,1 3,1 5,2 -1,0 -3,1 -4,2z M955 461c0,1 0,2 -1,3 -8,3 -8,3 -19,5 -1,-1 -1,-2 -1,-3 7,-2 14,-3 21,-5z M955 461c-4,-3 -4,-3 -7,-4 0,-1 0,-2 0,-3 3,1 6,2 10,3 0,1 0,2 1,3 -1,0 -3,1 -4,1z " />
        <path
           class="country"
           id="indonesia"
           d="M838 474c0,0 1,-1 2,-1 3,-1 3,-1 6,1 -3,2 -7,4 -11,6 0,-2 0,-3 0,-4 1,-1 2,-1 3,-2z M822 476c0,0 0,0 0,1 -2,-1 -4,-1 -6,-1 0,0 0,1 0,2 -10,-2 -10,-2 -30,-2 0,-1 0,-2 0,-3 -2,-1 -5,-2 -7,-3 0,-2 0,-4 0,-6 -2,0 -3,0 -4,0 -3,-8 -6,-11 -8,-18 -1,0 -2,-1 -2,-1 -1,-4 -1,-4 -4,-10 -1,0 -2,0 -3,0 0,-2 -1,-4 -1,-6 5,1 5,1 13,4 2,6 5,8 7,13 1,0 2,-1 3,-1 1,6 2,7 8,8 0,1 0,2 0,3 -1,0 -2,1 -3,1 1,1 1,3 2,4 0,0 1,-1 1,-1 2,2 0,4 4,6 0,1 0,2 0,3 0,1 1,1 2,1 0,-1 0,-2 0,-2 9,-1 16,3 26,5 0,1 0,2 0,3 0,0 1,0 2,0z M822 476c3,-6 13,-3 18,-3 -1,0 -2,1 -2,1 -2,0 -3,0 -4,0 0,1 0,2 0,3 -4,-1 -8,-1 -12,-1z M821 465c1,-11 4,-16 10,-24 5,0 10,0 15,-2 0,0 0,1 0,2 -4,2 -8,4 -13,3 0,1 0,2 -1,3 3,0 6,0 8,0 -1,2 -1,2 -6,2 0,4 0,8 0,12 -2,0 -4,0 -5,0 0,-2 0,-4 0,-7 -1,0 -1,0 -2,0 -1,4 -1,7 -2,11 -2,0 -3,0 -4,0z M802 460c-2,-4 -4,-5 -3,-9 -1,0 -2,0 -2,0 -1,-5 0,-7 2,-12 2,0 4,-1 7,-2 0,-1 0,-2 0,-3 3,-1 6,-2 8,-3 1,-3 2,-5 3,-7 1,0 2,0 3,0 0,-2 0,-3 1,-4 4,0 5,0 9,1 0,1 0,2 0,3 -1,0 -2,0 -3,1 1,0 1,1 2,2 -3,3 -6,8 -2,13 -7,5 -8,10 -11,17 -3,2 -3,2 -14,3z M841 458c0,-1 0,-1 0,-2 7,-1 11,-2 17,2 -6,0 -11,0 -17,0z M849 445c0,-2 0,-5 0,-8 1,1 2,1 3,1 0,3 1,5 1,7 -1,0 -3,0 -4,0z M875 394c0,-1 0,-1 1,-2 0,0 1,0 2,-1 0,4 0,4 -2,7 -1,0 -3,1 -4,1 1,-2 2,-4 3,-5z M853 396c1,-5 8,-10 12,-14 0,8 -4,13 -12,14z M876 392c-1,1 -1,1 -1,2 -1,0 -2,0 -3,0 0,-6 -3,-8 -4,-12 4,0 8,4 12,6 -2,0 -3,1 -4,2 0,1 0,1 0,2z M881 388c0,-2 -1,-5 -1,-8 -3,0 -5,0 -8,0 -1,-1 -1,-2 -2,-3 0,0 -1,0 -2,0 -2,-1 -3,-1 -4,-4 2,0 3,0 4,0 0,-2 0,-2 -2,-2 -1,-3 -1,-6 -1,-9 1,1 2,3 3,4 -2,-5 -2,-5 -1,-11 3,0 6,0 9,0 0,2 -1,3 -1,5 1,0 1,0 2,1 0,2 -1,4 -2,6 0,0 -1,-1 -1,-1 0,2 0,4 1,7 2,0 4,1 6,2 2,5 3,7 3,12 -1,1 -2,1 -3,1z " />
      </g>
      <g
         id="europe"
         visibility="visible"
         stroke="black"
         fill="#CEBADE">
        <path
           class="country"
           id="great_britain"
           d="M455 226c-7,2 -23,9 -30,8 0,-1 -1,-2 -1,-3 4,-2 8,-5 12,-7 -2,0 -4,-1 -6,-1 2,-6 2,-6 3,-12 1,0 3,0 5,0 0,-3 -1,-5 1,-8 -1,0 -2,-1 -3,-1 0,-1 0,-3 0,-4 -1,0 -2,0 -3,0 0,-9 2,-13 3,-21 5,-2 5,-2 8,-2 1,2 1,2 0,6 2,1 4,2 6,3 -8,11 0,20 2,33 1,0 2,0 3,1 0,2 0,5 0,8z M415 226c-1,-5 1,-9 0,-20 1,-1 2,-1 4,-2 -1,-2 -1,-2 0,-5 5,0 8,0 13,2 0,3 0,6 0,9 -1,0 -2,0 -3,0 -1,10 -3,14 -14,16z" />
        <path
           class="country"
           id="iceland"
           d="M425 156c-2,-1 -5,-2 -8,-2 0,-2 0,-3 -1,-5 3,0 3,0 3,-1 -1,0 -3,0 -4,0 0,-1 0,-2 0,-3 1,0 3,0 4,0 0,0 0,-1 0,-1 -1,0 -3,0 -4,0 0,-1 1,-2 1,-3 4,-2 4,-2 8,-1 0,0 0,1 0,2 7,0 15,-1 23,-1 1,1 2,1 3,2 -1,1 -1,1 -2,2 1,0 2,0 3,0 -2,12 -17,10 -26,11z" />
        <path
           class="country"
           id="western_europe"
           d="M 477 182 C 475 186 474 187 470 189 C 469 193 468 197 468 201 C 473 205 470 207 467 211 C 466 211 466 210 466 210 C 464 211 464 211 462 219 C 459 220 457 223 455 226 L 455 227 C 455 229 455 229 452 229 C 451 233 451 233 450 234 L 442 234 L 442 236 C 443 237 444 237 444 237 C 443 238 443 238 437 240 L 437 238 L 434 238 C 433 241 433 241 430 242 C 434 245 434 245 438 246 C 439 252 444 262 439 268 C 428 268 416 263 413 275 C 414 275 414 276 414 276 C 413 288 412 296 415 307 L 424 307 C 425 309 427 310 428 312 L 429 312 C 433 307 437 306 443 305 C 445 302 448 300 449 297 C 449 284 450 283 456 272 C 460 271 464 271 468 271 C 468 270 468 269 469 268 C 461 264 464 247 470 242 C 477 245 479 245 487 243 C 487 241 488 240 488 238 C 502 239 499 238 500 253 C 507 254 509 255 515 251 C 517 240 517 240 519 235 C 519 233 520 232 520 230 L 523 230 C 523 221 522 215 520 207 L 511 201 C 510 201 508 202 507 202 L 507 205 C 506 204 506 204 505 204 C 505 203 506 202 506 201 C 501 202 496 202 492 206 C 492 205 491 204 490 203 C 490 204 489 205 489 206 C 484 205 480 204 475 201 C 480 197 478 188 477 182 z " />
        <path
           class="country"
           id="scandinavia"
           d="M541 95c-9,16 1,39 1,57 -3,4 -6,8 -7,13 0,0 -1,0 -2,0 -8,1 -10,2 -19,2 -5,-7 -3,-12 -3,-20 1,0 2,0 3,0 4,-8 7,-11 7,-20 -2,1 -4,1 -6,2 -4,9 -8,15 -14,23 0,7 3,15 2,21 -1,0 -1,0 -2,0 -1,1 -1,3 -1,4 -1,1 -2,1 -3,1 -1,10 -1,17 -11,18 -2,-8 -7,-13 -6,-22 -1,0 -1,0 -2,0 -1,-1 -1,-1 -1,-2 -1,2 -3,4 -4,7 -5,0 -7,-1 -12,-3 -2,-11 -3,-12 -4,-21 1,-1 2,-1 2,-1 0,-2 0,-2 0,-3 0,-1 1,-1 2,-1 0,-1 -1,-1 -1,-1 3,-4 6,-3 8,-8 0,0 1,0 2,0 1,-1 2,-3 2,-5 5,1 5,-3 6,-7 1,0 2,-1 4,-2 -1,0 -1,-1 -1,-1 3,-4 3,-4 6,-15 1,0 1,1 2,1 0,-1 0,-2 0,-2 1,0 2,0 3,0 0,-4 0,-7 0,-11 3,-1 5,1 7,0 0,-1 -1,-3 -1,-4 4,-1 4,1 8,1 1,-4 1,-5 5,-5 0,-1 -1,-2 -1,-4 3,-3 8,-2 11,-2 0,2 0,2 2,2 0,-2 0,-3 0,-5 1,-1 3,-1 5,-1 -1,5 -1,5 0,6 1,-2 2,-3 3,-5 4,1 7,3 11,4 0,1 0,2 0,3 0,1 -1,2 -2,3 0,1 0,2 1,3z M557 48c1,0 2,0 3,1 0,1 0,2 0,2 -1,0 -2,0 -3,0 -1,5 -1,5 -5,5 -2,2 -4,5 -6,7 -2,-1 -3,-1 -4,-2 0,0 1,-1 1,-1 -1,-1 -2,-1 -3,-2 0,-3 0,-3 1,-4 -2,-1 -3,1 -6,0 0,-4 -2,-4 -3,-8 5,1 10,1 15,-1 1,1 1,3 2,4 1,-2 2,-5 4,-7 0,2 1,4 2,6 0,0 1,0 2,0z M560 61c-1,-1 -2,-2 -3,-3 1,-1 1,-2 1,-4 3,0 5,0 7,-1 -1,1 -1,1 -1,2 0,0 1,1 2,1 -2,3 -2,3 -6,5z M557 48c0,-3 0,-5 0,-7 2,0 4,0 6,0 0,1 0,2 1,3 2,0 4,0 6,0 0,1 -1,3 -1,5 -3,0 -5,0 -8,0 0,0 1,0 1,-1 -1,0 -3,0 -5,0z" />
        <path
           class="country"
           id="southern_europe"
           d="M521 316c-1,-2 -1,-2 -4,-3 0,-1 0,-2 0,-3 10,1 10,1 15,3 0,1 0,2 1,3 -4,0 -8,0 -12,0z M474 288c-1,-3 -1,-6 -2,-10 1,0 2,0 3,0 0,3 0,6 1,9 -1,0 -2,1 -2,1z M527 289c-1,0 -2,0 -3,0 0,0 1,1 1,1 -1,0 -2,0 -2,1 0,-3 0,-3 -2,-3 1,7 4,16 -2,21 0,0 -1,-1 -1,-1 0,0 -1,1 -1,1 -3,-6 -3,-6 -5,-18 -1,0 -1,0 -2,0 -2,-6 -5,-11 -7,-15 -6,-2 -12,-13 -16,-19 -4,6 7,20 12,22 3,4 6,9 8,13 -2,-1 -3,-2 -5,-4 -3,4 -2,6 0,9 -1,0 -2,0 -3,0 -2,3 -4,6 -6,8 -1,1 -2,1 -2,1 -2,-2 -3,-3 -4,-4 1,-1 1,-1 6,-1 1,-3 2,-5 3,-7 -3,-6 -9,-14 -13,-17 0,0 0,0 0,-1 -1,-1 -2,-1 -3,-1 -1,-3 -2,-5 -2,-8 -2,0 -5,0 -7,0 0,1 -1,2 -1,2 -8,-4 -5,-21 1,-26 7,3 9,3 16,1 0,-2 1,-3 1,-5 14,1 11,0 12,15 7,1 9,2 15,-2 2,-11 2,-11 4,-16 4,-2 4,-2 8,-2 0,1 0,2 1,3 1,1 2,1 3,1 2,10 2,17 10,22 -3,4 -4,9 -6,14 -8,15 0,0 -8,15z" />
        <path
           class="country"
           id="ukraine"
           d="M583 279c1,-9 -5,-13 -12,-15 0,-2 -1,-4 -1,-6 -1,0 -2,0 -3,0 1,-5 3,-7 6,-10 -5,1 -10,1 -13,5 2,1 2,1 5,1 0,1 0,1 0,2 -1,1 -2,1 -3,1 0,1 -1,2 -1,3 -5,0 -5,0 -10,-3 1,-2 1,-2 1,-4 -1,0 -3,1 -4,1 -1,0 -2,-1 -2,-1 3,-2 3,-2 3,-3 -1,0 -3,0 -5,0 0,2 0,5 0,8 -2,0 -2,0 -2,1 -9,-5 -9,-12 -11,-22 -1,0 -2,0 -3,-1 -1,-1 -1,-2 -1,-3 -4,0 -4,0 -8,2 0,-2 1,-3 1,-5 1,0 2,0 3,0 0,-9 -1,-15 -3,-23 -3,-2 -6,-4 -9,-6 0,-3 -1,-6 -1,-8 1,0 1,0 2,0 1,-4 3,-7 4,-11 1,0 2,-1 3,-1 0,1 -1,3 -1,4 2,0 3,1 5,1 0,-2 0,-4 0,-6 -1,0 -2,0 -3,0 0,-1 1,-2 1,-3 -1,-1 -2,-1 -2,-1 0,-1 0,-2 1,-3 3,-1 3,-1 6,1 6,-3 6,-3 12,-4 -1,-3 -2,-3 -5,-5 1,0 2,0 2,0 1,-5 4,-9 7,-13 0,-18 -10,-41 -1,-57 4,-3 5,-3 11,-3 0,2 0,3 0,4 7,1 32,14 23,23 -5,2 -5,2 -19,3 0,-1 -1,-3 -1,-3 -2,-1 -3,-1 -4,-1 1,6 6,9 11,11 0,3 -1,5 -1,7 6,0 11,-1 17,1 -1,-2 -1,-4 -2,-6 4,-2 5,-2 9,-2 1,-2 3,-4 4,-7 -1,0 -2,-1 -3,-1 0,-4 -2,-9 0,-13 5,1 8,2 10,7 -1,0 -2,0 -3,0 0,2 0,4 1,6 1,0 3,0 4,0 1,-2 1,-3 1,-5 5,0 6,-3 11,-3 0,-2 1,-3 1,-5 5,-2 8,-4 14,-4 -1,0 -3,1 -4,2 0,1 0,1 0,2 5,-1 7,-2 12,-1 0,-1 1,-3 2,-4 0,1 0,2 0,3 2,0 3,0 4,0 -1,-4 -1,-4 -2,-7 0,0 0,-1 1,-1 4,0 6,2 19,4 1,2 1,2 3,4 -1,4 -1,8 -1,13 -7,8 -13,12 -7,22 2,17 1,34 2,50 1,0 3,0 4,1 1,1 1,3 2,5 -1,0 0,13 0,15 -11,7 -14,5 -25,6 0,-1 -1,-2 -1,-3 -9,1 -23,2 -31,7 -7,12 4,19 0,33 -2,5 -6,11 1,13 0,4 0,7 0,11 2,1 5,2 7,2 -1,4 -3,8 -4,12 -5,2 -5,2 -9,2 -1,-2 -3,-5 -4,-7 -1,0 -2,0 -4,0 0,-2 0,-4 -1,-6 -5,-2 -5,-2 -6,-3z M638 98c-1,0 -1,1 -1,1 -2,-1 -3,-1 -5,-2 0,-5 0,-5 1,-6 2,2 3,5 5,7z M615 86c-4,-2 -8,-4 -12,-6 2,-4 3,-7 7,-9 -1,-1 -1,-1 -2,-2 5,-5 5,-5 12,-8 0,-1 0,-2 0,-3 10,-2 10,-2 13,-4 0,2 0,3 0,4 -3,3 -9,6 -16,11 0,1 0,1 0,2 -1,0 -1,0 -2,0 0,7 2,8 4,14 -2,0 -3,0 -4,1z" />
      </g>
      <g
         id="north_america"
         visibility="visible"
         stroke="black"
         fill="#EFCB73">
        <path
           class="country"
           id="alaska"
           d="M109 174c1,1 2,2 3,3 0,2 0,4 0,7 -1,-3 -3,-5 -5,-8 1,0 1,-1 2,-2z M105 164c0,-1 0,-2 0,-3 3,0 3,0 3,-1 -3,-1 -6,-3 -8,-4 -1,1 -1,2 -1,2 -2,0 -4,-1 -6,-2 0,-1 0,-2 0,-3 0,-1 -1,-1 -2,-1 0,1 -1,1 -1,2 -1,0 -2,-1 -3,-1 1,-1 1,-1 2,-2 -1,0 -2,-1 -2,-1 0,0 -1,1 -1,2 -3,-1 -3,-2 -5,-5 -3,0 -3,0 -6,-2 -1,0 -1,0 -2,1 1,1 2,3 3,5 -8,2 -13,4 -17,5 0,-1 0,-3 0,-4 3,-2 5,-4 8,-6 -6,1 -10,7 -15,6 0,2 0,4 0,5 -2,2 -5,4 -7,5 0,1 0,2 0,3 -6,3 -24,13 -29,9 5,-4 10,-6 16,-8 0,0 0,-1 0,-2 4,-1 4,-3 5,-7 -2,1 -5,1 -7,1 0,-2 0,-2 -2,-2 0,1 0,2 0,2 -1,1 -3,1 -5,1 0,-3 0,-3 2,-7 -1,0 -2,0 -3,0 -1,-5 -3,-4 -6,-3 -1,-2 -1,-4 -2,-6 2,-1 3,-2 4,-2 -1,-1 -2,-1 -2,-1 0,-2 0,-4 1,-5 5,-3 9,-1 15,0 2,-3 5,-6 4,-9 -7,4 -8,3 -14,-2 1,-1 2,-3 3,-5 1,0 1,1 1,1 0,-2 0,-3 0,-5 3,0 6,0 9,0 -2,-4 -5,-8 -4,-12 1,-1 2,-1 4,-1 0,-1 0,-2 0,-3 9,-2 19,-9 29,-8 0,1 -1,2 -1,3 13,0 26,5 40,6 0,17 0,33 0,49 2,0 5,0 7,0 8,10 12,20 12,32 -4,-2 -11,-12 -13,-17 -1,0 -3,0 -4,0z M44 172c0,-3 2,-8 6,-7 1,1 1,2 1,3 -2,1 -5,2 -7,4z" />
        <path
           class="country"
		   id="canada"
           d="M 127.19922 78.400391 C 123.99922 78.400391 123.20078 78.400781 120.80078 80.800781 L 116 80.800781 L 116.80078 81.599609 C 112.80078 81.599609 106.40039 81.6 102.40039 84 C 100.80039 83.2 100.79922 83.199609 95.199219 81.599609 C 95.999219 81.599609 96.799609 80.800781 97.599609 80.800781 C 96.799609 80.800781 96.800781 80 96.800781 80 C 92.000781 80 92.000781 80.000781 88.800781 80.800781 C 88.800781 81.600781 88.8 82.399219 88 83.199219 C 86.4 82.399219 84.000391 81.6 82.400391 80 L 82.400391 119.19922 L 88 119.19922 C 94.4 127.19922 97.599609 135.20078 97.599609 144.80078 L 97.599609 147.19922 C 97.599609 146.39922 97.600781 146.39961 96.800781 145.59961 L 96.800781 149.59961 L 100 149.59961 L 106.40039 156 C 106.40039 157.6 105.59961 159.20078 105.59961 160.80078 C 107.19961 161.60078 108.00078 163.2 108.80078 164 C 128.00078 164.8 147.99922 164.79961 167.19922 165.59961 C 167.99922 151.99961 169.60039 137.6 170.40039 124 C 174.40039 124 178.40039 124.00078 182.40039 124.80078 C 183.20039 112.80078 184.00078 101.59961 184.80078 89.599609 C 177.60078 87.999609 174.39922 87.2 167.19922 88 C 167.19922 88.8 169.59961 88.799609 169.59961 89.599609 L 166.40039 89.599609 L 166.40039 92 L 164 92 L 164 89.599609 C 159.2 90.399609 156.8 91.199219 152 91.199219 L 152 88.800781 L 153.59961 88.800781 L 153.59961 86.400391 C 146.39961 84.800391 139.2 79.999219 132 83.199219 L 132 81.599609 L 134.40039 81.599609 L 134.40039 79.199219 C 129.60039 79.999219 128.00039 80.800781 126.40039 80.800781 C 126.40039 80.000781 127.19922 79.200391 127.19922 78.400391 z "
           transform="scale(1.25)" />
		<path
           class="country"
           id="central_america"
           d="M212 363c-3,-4 -6,-9 -9,-14 0,-7 0,-7 -2,-16 -10,-6 -18,-11 -28,-16 0,-1 0,-2 0,-3 1,0 3,0 4,0 0,-1 -1,-3 -1,-4 -9,-7 -11,-18 -16,-27 -1,0 -1,1 -2,1 4,11 8,20 11,32 -6,-2 -9,-10 -10,-16 -4,-1 -5,-2 -7,-6 0,-1 1,-1 1,-2 -2,-6 -3,-10 -8,-13 -1,-1 -1,-3 -1,-4 4,0 9,0 14,0 8,9 18,0 27,10 2,0 4,1 6,2 2,2 4,4 6,6 -2,8 -2,22 5,26 4,0 8,0 12,0 4,-4 11,-4 14,2 -2,5 -9,8 -13,11 2,1 4,2 6,3 0,2 0,4 0,6 -6,4 -8,5 -11,11 0,1 1,2 1,2 6,1 8,0 13,4 -5,3 -8,3 -12,5z" />
        <path
           class="country"
           id="east_coast"
           d="M 299 144 C 298 152 299 158 291 160 C 293 166 294 168 294 175 C 290 178 288 180 283 181 C 283 187 283 193 281 198 L 278 198 C 278 206 277 215 277 223 L 281 223 L 281 221 C 286 221 288 221 292 225 L 283 228 L 283 230 C 276 232 270 238 263 237 C 263 235 264 233 264 231 L 264 230 L 260 230 C 262 226 263 224 260 221 C 258 222 257 223 256 226 L 254 226 C 253 229 253 233 252 236 C 251 237 249 237 247 238 C 248 230 250 227 254 221 L 259 221 L 259 218 C 255 217 255 217 253 218 C 253 217 252 216 251 215 C 247 216 243 216 238 217 L 238 214 L 241 214 L 241 211 L 238 208 C 235 208 232 208 229 207 C 228 221 228 235 227 250 L 209 250 C 208 253 207 256 207 259 C 204 259 201 260 199 260 C 198 265 197 269 196 273 C 194 274 192 274 191 274 L 191 287 L 197 293 C 199 292 199 292 202 287 C 213 283 222 282 232 287 C 232 285 231 283 231 281 C 241 282 243 283 251 283 C 250 289 250 289 252 303 C 254 302 256 302 258 301 C 261 294 261 287 261 279 C 263 275 263 275 264 271 C 270 269 277 265 281 260 L 281 254 C 282 254 282 255 283 255 C 284 253 285 251 286 250 C 301 247 304 230 319 229 C 323 228 323 228 324 229 C 322 230 321 231 319 232 L 319 235 C 327 234 331 228 340 225 L 340 222 L 330 222 C 330 216 330 216 328 215 C 329 214 330 214 332 214 C 331 212 331 211 331 210 C 329 209 326 208 324 207 C 328 202 339 208 346 201 C 352 199 352 199 361 197 C 361 194 360 191 360 188 L 351 188 C 351 186 351 186 355 184 C 352 182 349 180 347 178 C 345 171 344 161 341 154 C 339 154 337 155 336 156 C 335 158 335 160 335 161 L 329 164 L 329 166 C 327 166 326 166 324 165 C 323 163 321 161 320 158 L 323 158 C 322 155 322 155 319 149 L 315 149 C 315 148 314 147 314 146 C 309 146 304 147 299 144 z M 364 198 C 358 199 350 203 349 209 L 346 209 C 345 211 344 212 344 214 C 346 215 349 215 351 215 L 351 218 C 353 217 354 216 355 215 C 356 217 357 218 357 219 C 360 218 363 218 365 217 C 366 216 366 215 366 214 C 365 214 364 213 363 213 L 363 210 C 363 210 364 209 365 209 C 364 208 363 206 363 205 C 362 205 361 205 360 206 C 359 205 359 204 359 203 L 363 203 C 363 202 363 200 364 198 z " />
        <path
           class="country"
           id="greenland"
           d="m 309,17 c -10,1 -20,2 -30,2 -1,1 -1,2 -2,3 -3,0 -5,-1 -8,-1 0,2 -1,5 -1,7 -2,0 -4,1 -5,2 0,1 1,1 2,2 13,0 27,-6 40,-1 -13,1 -27,-1 -38,6 v 3 c 3,0 7,1 10,1 -1,1 -1,1 -1,2 -8,1 -8,1 -9,3 3,0 6,1 10,2 v 3 h -3 c 0,-1 -1,-2 -1,-3 h -3 c -1,1 -1,2 -2,3 h -9 c 0,1 0,2 1,3 3,2 4,2 8,1 0,1 0,2 1,3 h 4 c 0,1 1,2 1,3 2,0 4,1 7,1 0,-1 0,-1 1,-2 0,0 1,0 2,1 v 2 c 2,1 4,1 6,2 2,-1 4,-1 6,-2 -2,-4 -3,-5 -3,-10 4,3 5,4 10,4 v -3 c 3,-3 3,-3 10,-5 -1,-1 -1,-2 -1,-3 2,-2 20,-7 21,-8 0,-1 -1,-1 -1,-2 2,-1 4,0 8,0 v -3 c 6,-3 9,-3 10,-4 5,-8 -9,-6 -13,-7 -1,-1 -1,-3 -1,-5 -9,2 -9,2 -27,3 z m 105.47266,0.810547 C 407.27002,17.823975 399.0625,18.8125 397,25 h -2 v -3 c -4,1 -7,1 -10,1 0,3 0,6 1,9 -12,0 -12,0 -13,2 l 1,1 c -8,2 -8,2 -10,3 0,-1 -1,-2 -1,-3 -2,0 -4,0 -6,1 0,0 0,1 -1,2 -1,0 -2,-1 -4,-1 v 3 c -1,0 -3,-4 -6,-4 -1,1 -2,3 -2,5 -1,-1 -2,-2 -3,-2 -3,1 -3,1 -4,5 h -6 v 2 c -7,2 -11,4 -17,7 1,1 2,2 4,3 -6,4 -14,0 -16,7 3,1 6,1 8,1 v 3 c -7,-2 -7,-2 -10,-1 1,3 1,6 2,10 3,1 3,1 8,2 v -3 c 1,0 1,0 2,3 8,2 10,-2 17,-3 1,3 1,3 3,5 1,0 3,-1 4,-1 v 4 c 10,3 12,15 12,25 2,0 3,0 5,-1 l 3,6 c -2,0 -2,0 -8,-3 -1,2 -1,2 -2,6 1,1 1,1 2,1 0,1 -1,1 -1,2 v 4 h 4 c 0,-2 -1,-3 -1,-4 h 6 c 0,1 0,1 -2,1 -1,2 -2,5 -2,7 l -2,-2 c -2,4 -4,6 0,9 -1,0 -2,0 -3,1 v 5 c 1,0 2,1 2,1 1,4 2,7 3,11 -1,1 -2,1 -2,2 1,1 2,1 4,2 0,2 0,4 1,5 0,1 1,1 2,1 1,1 1,2 1,3 3,1 5,1 7,1 2,5 4,6 8,8 4,-6 6,-10 8,-18 4,-6 8,-9 8,-16 6,-2 13,-2 20,-4 v -3 c 5,0 7,-2 12,-6 v 2 c 10,-2 18,-7 28,-10 0,-1 1,-3 2,-4 -3,-1 -6,-1 -9,-2 2,-1 3,-1 5,-2 v -5 c 1,0 2,4 5,8 3,0 3,0 5,1 1,-2 2,-4 4,-6 -1,-3 -2,-6 -2,-9 -3,-1 -5,-2 -7,-3 3,-3 6,0 9,1 v -3 c 1,0 1,3 3,3 1,-6 0,-10 8,-11 v -4 c -2,-1 -4,-1 -6,-1 v -3 c 1,0 2,-1 3,-1 v -6 c 1,0 2,0 2,-1 v -4 h -3 c 0,-3 0,-6 1,-9 4,-1 5,-6 7,-10 h 4 c 0,-1 0,-3 -1,-3 9,-2 9,-2 10,-3 -1,-1 -1,-2 -2,-3 -7,1 -14,1 -21,2 0,1 -1,1 -1,2 -3,-3 -8,-2 -12,-2 v -3 c 7,0 9,0 13,-4 -3,-3 -8,-1 -13,0 2,-1 4,-2 6,-2 v -3 c -14,-1 -23,-5 -36,-8 v -3 c -2.1875,0 -5.25342,-0.195557 -8.52734,-0.189453 z M 235,44 c -3,8 2,7 6,13 2,-4 2,-5 1,-9 -2,-1 -2,-1 -7,-4 z m 11,2 c 1,5 1,11 6,12 v 8 h 5 c 3,5 6,6 11,8 6,0 13,-1 19,-1 1,-2 1,-5 1,-7 -8,0 -16,-1 -24,-1 -2,-3 -4,-6 -5,-10 h -3 c -2,-4 -3,-4 -7,-6 v -3 z m -22,6 v 5 c 2,-1 3,-1 4,-1 v -4 z m -27.53125,9.96875 C 190.1875,62.0625 182.5,63 181,69 h 4 c 0,0 0,1 1,2 2,-1 5,-2 8,-3 0,0 0,1 1,1 -1,1 -3,2 -4,2 v 3 c 2,0 3,0 5,1 0,0 -1,0 -1,1 1,1 2,1 4,2 11,-3 16,-3 27,-4 0,-1 0,-3 1,-4 h -4 c 0,-1 0,-1 3,-1 v -4 c -6,0 -10,-2 -14,1 0,1 0,2 1,3 -2,0 -4,0 -6,1 0,-1 -1,-2 -2,-3 h -8 c 2,-2 2,-2 5,-2 v -3 c -1.5,0 -3.4375,-0.0625 -5.53125,-0.03125 z M 246,62 c -2,1 -5,2 -8,3 v 2 c -1,-1 -2,-2 -2,-4 h -4 c 0,3 -1,7 -1,10 3,0 6,0 9,2 3,-4 3,-4 8,-7 0,-2 -1,-4 -2,-6 z m -72,9 v 3 c -4,2 -4,2 -10,3 v 4 c -2,0 -3,0 -5,1 0,2 1,4 1,6 4,-2 4,-2 13,-2 0,-1 1,-2 1,-3 4,-2 8,-3 12,-5 0,-1 1,-2 1,-3 -2,0 -4,0 -7,1 0,-2 0,-3 -1,-5 z m 78,0 v 8 h 4 c 0,-2 0,-4 -1,-7 -1,0 -2,0 -3,-1 z m -30,7 c -1,4 -3,8 -4,12 -3,-1 -3,-2 -5,-5 -2,1 -2,1 -3,3 -2,0 -5,-1 -8,-2 1,0 1,0 2,-1 -4,-2 -6,-1 -9,-5 -7,0 -8,1 -14,2 0,1 0,2 1,3 1,0 3,1 5,1 -8,2 -8,2 -9,3 1,1 3,1 4,1 -2,1 -4,2 -6,2 0,3 1,6 2,8 4,1 9,1 13,2 1,2 3,5 4,8 8,-2 16,-3 24,-5 4,2 5,2 9,2 0,-1 -1,-2 -1,-3 1,-1 2,-1 4,-2 -1,0 -1,-1 -2,-1 1,0 2,0 3,-1 v -2 c -3,-1 -5,-2 -8,-3 1,-7 1,-11 -2,-17 z m 50,0 c -17,2 -23,11 -26,28 h 3 v 2 h -6 v -4 c -3,0 -5,0 -8,1 1,2 1,2 2,6 -2,0 -4,1 -6,1 -1,15 -2,29 -3,44 h 10 c 2,-4 4,-7 5,-11 7,-4 15,-7 20,-12 -2,-2 -4,-4 -5,-6 3,0 4,2 7,4 3,-1 3,-2 5,-5 14,1 18,-7 18,-19 1,-1 3,-1 4,-1 0,0 1,1 1,2 3,-1 5,-2 8,-2 0,-3 0,-3 1,-3 1,3 1,5 2,8 h 2 v 3 c -1,0 -2,0 -3,1 0,0 0,2 -1,3 3,-1 5,-1 7,-1 0,2 1,3 1,5 1,-1 3,-1 4,-1 0,1 1,2 1,3 -5,1 -9,3 -18,6 0,1 -1,2 -1,3 5,1 10,1 15,1 2,8 8,9 16,10 -2,-4 -2,-4 -2,-6 3,3 4,3 8,3 0,-3 0,-6 1,-9 l -3,-3 c 0,-6 0,-6 1,-7 2,5 2,5 4,7 1,0 2,0 4,-1 1,-1 2,-3 3,-5 h -2 c -1,-3 -2,-6 -3,-8 h -5 v -3 h -4 v -2 h 4 c 0,-1 1,-2 1,-3 -2,-1 -5,-3 -7,-4 0,-1 1,-2 1,-3 h -4 c 0,-1 1,-1 1,-2 -1,-1 -1,-1 -9,-2 1,-1 1,-2 1,-3 -1,-1 -1,-1 -10,-6 -1,1 -1,1 -1,7 h -6 c 1,-4 2,-7 4,-11 h -12 c 0,2 -1,4 -1,6 -3,2 -4,4 -6,7 0,-1 -1,-3 -1,-5 1,-2 3,-4 4,-6 -6,0 -9,2 -14,4 -1,8 -2,9 2,15 l 1,-1 c 1,1 1,2 1,3 h 8 v 1 h -8 c 0,1 -1,3 -1,4 -1,0 -2,1 -3,1 v 3 h -4 c 0,-2 0,-4 -1,-6 -1,-1 -2,-1 -4,-2 0,1 -1,3 -2,4 -3,-9 -5,-13 -3,-23 7,0 8,-4 12,-10 z m -31,3 c 0,0 -1,1 -1,2 l -1,-1 c -1,1 -2,2 -3,4 0,-1 0,-2 -1,-3 -1,1 -2,2 -2,3 0,3 1,6 2,9 3,-1 6,-2 10,-3 v -2 c 3,-1 3,-1 6,-6 -2,0 -5,1 -8,2 1,-2 1,-4 2,-5 z m 60,35 c -6,2 -6,2 -5,8 2,-1 3,-2 5,-2 z m -31,14 c -3,5 -5,10 -6,15 6,-1 8,-4 14,-5 v 4 h 3 c 1,-3 1,-3 2,-5 -3,-2 -4,-2 -5,-6 h -3 v -2 c -1,0 -3,0 -5,-1 z" />
	    <path
           class="country"
           id="ontario"
           d="M264 231c2,-1 2,-1 3,-6 1,1 3,1 4,2 0,-2 -1,-4 -1,-6 -16,-5 -8,-18 -29,-10 -1,-1 -2,-2 -3,-3 -3,0 -6,0 -9,-1 -6,0 -13,0 -20,0 1,-17 3,-35 4,-52 5,0 10,0 15,1 4,0 7,0 10,0 0,2 0,4 0,5 1,1 2,1 3,1 0,2 0,4 1,6 2,2 5,3 8,5 0,1 0,2 0,3 7,2 15,6 23,5 0,8 1,11 5,17 0,8 -1,17 -1,25 1,0 2,0 4,0 0,-1 0,-2 0,-2 5,0 7,0 11,4 -3,1 -6,2 -9,3 0,1 0,1 0,2 -7,2 -13,8 -20,7 0,-2 1,-4 1,-6z" />
        <path
           class="country"
           id="western_united_states"
           d="M144 275c-15,-24 -15,-33 -9,-61 1,0 2,0 4,0 -1,-5 -1,-5 -3,-9 24,1 49,1 73,2 7,0 14,0 20,0 -1,14 -1,28 -2,43 -6,0 -12,0 -18,0 -1,3 -2,6 -2,9 -3,0 -6,1 -8,1 -1,5 -2,9 -3,13 -2,1 -4,1 -5,1 0,4 0,9 0,13 -2,-1 -4,-2 -6,-2 -9,-10 -19,-1 -27,-10 -5,0 -10,0 -14,0z" />
      </g>
      <g
         id="south_america"
         visibility="visible"
         stroke="black"
         fill="#E79273">
        <path
           class="country"
           id="west_south_america"
           d="M 188 406 C 185 412 177 421 181 428 L 184 425 C 184 429 182 430 180 432 L 180 439 C 188 444 200 466 205 473 C 209 475 213 477 217 480 L 217 482 C 220 484 223 486 227 487 C 229 515 228 548 223 576 C 224 576 225 577 226 577 L 226 590 L 222 590 L 222 596 L 224 596 C 224 597 224 597 222 597 L 222 601 L 224 601 C 224 602 224 603 223 604 C 224 606 224 606 227 606 C 228 615 228 624 237 629 L 237 633 C 239 634 241 634 242 635 C 243 635 244 634 244 634 L 244 637 L 249 637 L 249 641 L 252 641 C 252 642 252 642 251 643 C 264 646 263 647 277 643 C 271 639 265 636 259 633 L 259 630 L 256 630 C 256 629 256 628 255 627 C 256 626 257 626 257 625 L 253 621 C 253 618 256 613 255 610 C 256 610 257 609 258 609 C 258 606 258 604 259 601 C 258 601 257 600 256 600 C 256 595 256 595 260 591 C 259 590 259 589 259 588 L 261 588 L 261 585 L 259 585 C 259 584 259 584 262 583 C 261 582 260 581 260 580 L 260 576 C 260 577 261 577 261 578 L 267 578 C 268 575 268 575 269 569 C 272 567 282 566 285 564 L 285 556 C 285 557 284 557 284 557 C 282 554 282 554 277 549 C 284 549 288 553 296 550 C 297 548 297 547 297 546 C 300 546 300 546 300 544 C 296 540 295 537 290 536 L 290 530 L 283 530 C 284 525 290 520 294 517 C 293 516 293 515 292 514 C 290 504 288 501 279 496 C 279 494 278 492 278 490 C 279 489 280 489 281 489 C 276 477 276 477 274 475 C 269 474 269 474 268 472 C 269 471 269 470 270 470 C 269 469 268 468 267 468 L 267 464 C 259 463 253 459 247 455 L 244 449 C 239 452 233 457 228 456 C 226 450 226 450 227 447 C 223 447 222 449 218 449 C 213 441 204 443 209 432 L 212 432 C 212 425 213 425 219 423 L 220 422 C 218 421 218 421 204 416 C 202 410 194 410 188 406 z M 313.20312 614.95117 C 310.29395 614.97314 307.9375 616.0625 304 620 C 304 623 304 626 305 629 C 306 630 307 631 309 631 C 310 631 311 631 313 630 C 316 624 317 623 323 621 C 322 619 322 617 322 616 C 318.0625 615.5625 315.46582 614.93408 313.20312 614.95117 z M 301 616 C 298 617 295 618 292 620 C 293 621 294 623 295 624 C 293 624 292 625 291 625 L 291 627 C 294 628 294 628 295 630 C 299 629 299 629 302 626 C 301 623 301 619 301 616 z " />
        <path
           class="country"
           id="brazil"
           d="M292 514c-2,-10 -4,-13 -13,-18 0,-2 -1,-4 -1,-6 1,-1 2,-1 3,-1 -5,-12 -5,-12 -7,-14 -5,-1 -5,-1 -6,-3 1,-1 1,-2 2,-2 -1,-1 -2,-2 -3,-2 0,-2 0,-3 0,-4 -8,-1 -14,-5 -20,-9 -2,-4 -2,-4 -3,-6 -5,3 -11,8 -16,7 -2,-6 -2,-6 -1,-9 -4,0 -5,2 -9,2 -5,-8 -14,-6 -9,-17 1,0 2,0 3,0 0,-7 1,-7 7,-9 0,0 1,1 1,1 3,0 5,0 8,0 4,-7 -1,-11 0,-18 2,-1 5,-2 7,-2 4,3 6,2 11,2 3,-3 3,-4 3,-9 6,-1 7,-3 15,-4 3,7 3,7 4,13 7,-1 14,1 20,-4 7,5 13,-5 16,-11 8,3 7,7 9,16 2,0 5,0 7,0 -1,2 -2,4 -3,5 5,1 10,1 16,3 0,1 0,2 0,2 14,-1 25,9 38,12 -1,14 -3,19 -14,27 0,3 -1,7 -1,10 -1,1 -2,1 -3,1 0,5 0,11 0,16 -12,18 -11,19 -31,23 0,1 0,2 0,3 -2,0 -3,0 -4,0 -5,8 -5,11 -5,20 -6,3 -9,9 -11,15 -1,0 -1,0 -2,0 -4,-4 -5,-7 -10,-8 0,-4 0,-4 0,-6 -3,0 -5,0 -7,0 1,-5 7,-10 11,-13 -1,-1 -1,-2 -2,-3z" />
        <path
           class="country"
           id="venezuela"
           d="M219 423c0,0 1,-1 1,-1 -2,-1 -2,-1 -16,-6 -2,-6 -10,-6 -16,-10 1,-7 4,-13 5,-21 -1,0 -2,0 -3,-1 0,-3 1,-7 2,-10 1,0 2,0 3,0 0,-2 0,-4 0,-5 2,2 3,3 3,6 1,1 2,1 3,2 0,-2 -1,-4 -1,-6 4,-2 8,-5 12,-8 4,-2 7,-2 12,-5 2,0 3,0 5,-1 1,1 2,2 3,3 -1,1 -2,3 -4,4 1,2 2,3 3,5 0,-2 0,-2 0,-3 1,-1 1,-1 2,-1 0,-1 0,-2 0,-3 5,-1 8,0 13,2 10,0 18,-2 21,9 0,0 1,0 2,0 1,1 1,2 1,4 6,1 9,3 13,7 1,-1 2,-1 2,-2 5,3 16,7 19,9 -3,6 -9,16 -16,11 -6,5 -13,3 -20,4 -1,-6 -1,-6 -4,-13 -8,1 -9,3 -15,4 0,5 0,6 -3,9 -5,0 -7,1 -11,-2 -2,0 -5,1 -7,2 -1,7 4,11 0,18 -3,0 -5,0 -8,0 0,0 -1,-1 -1,-1z" />
      </g>
      <g
         id="continent"
         visibility="visible"
         stroke-width="3"
         stroke="black">
        <path
           class="continent"
           id="path299"
           d="M 557 41 L 557 48 L 562 48 C 562 49 561 49 561 49 L 569 49 C 569 47 570 45 570 44 L 564 44 C 563 43 563 42 563 41 L 557 41 z M 557 48 L 555 48 C 554 46 553 44 553 42 C 551 44 550 47 549 49 C 548 48 548 46 547 45 C 542 47 537 47 532 46 C 533 50 535 50 535 54 C 538 55 539 53 541 54 C 540 55 540 55 540 58 C 541 59 542 59 543 60 L 542 61 C 543 62 544 62 546 63 C 548 61 550 58 552 56 C 556 56 556 56 557 51 L 560 51 L 560 49 C 559 48 558 48 557 48 z M 565 53 C 563 54 561 54 558 54 C 558 56 558 57 557 58 L 560 61 C 564 59 564 59 566 56 C 565 56 564 55 564 55 C 564 54 564 54 565 53 z M 633 54 C 630 56 630 56 620 58 L 620 61 C 613 64 613 64 608 69 L 610 71 C 606 73 605 76 603 80 L 615 86 C 616 85 617 85 619 85 C 617 79 615 78 615 71 L 617 71 L 617 69 C 624 64 630 61 633 58 L 633 54 z M 528 81 C 526 81 524 81 523 82 L 523 87 C 521 87 521 87 521 85 C 518 85 513 84 510 87 C 510 89 511 90 511 91 C 507 91 507 92 506 96 C 502 96 502 94 498 95 C 498 96 499 98 499 99 C 497 100 495 98 492 99 L 492 110 L 489 110 L 489 112 C 488 112 488 111 487 111 C 484 122 484 122 481 126 C 481 126 481 127 482 127 C 480 128 479 129 478 129 C 477 133 477 137 472 136 C 472 138 471 140 470 141 L 468 141 C 466 146 463 145 460 149 C 460 149 461 149 461 150 C 460 150 459 150 459 151 L 459 154 C 459 154 458 154 457 155 C 458 164 459 165 461 176 C 466 178 468 179 473 179 C 474 176 476 174 477 172 C 477 173 477 173 478 174 L 480 174 C 479 183 484 188 486 196 C 496 195 496 188 497 178 C 498 178 499 178 500 177 C 500 176 500 174 501 173 L 503 173 C 504 167 501 159 501 152 C 507 144 511 138 515 129 C 517 128 519 128 521 127 C 521 136 518 139 514 147 L 511 147 C 511 155 509 160 514 167 C 523 167 525 166 533 165 C 536 167 537 167 538 170 C 532 171 532 171 526 174 C 523 172 523 172 520 173 C 519 174 519 175 519 176 C 519 176 520 176 521 177 C 521 178 520 179 520 180 L 523 180 L 523 186 C 521 186 520 185 518 185 C 518 184 519 182 519 181 C 518 181 517 182 516 182 C 515 186 513 189 512 193 L 510 193 C 510 195 511 198 511 201 C 510 201 508 202 507 202 L 507 205 C 506 204 506 204 505 204 C 505 203 506 202 506 201 C 501 202 496 202 492 206 C 492 205 491 204 490 203 C 490 204 489 205 489 206 C 484 205 480 204 475 201 C 480 197 478 188 477 182 C 475 186 474 187 470 189 C 469 193 468 197 468 201 C 473 205 470 207 467 211 C 466 211 466 210 466 210 C 464 211 464 211 462 219 C 459 220 457 223 455 226 L 455 227 C 455 229 455 229 452 229 C 451 233 451 233 450 234 L 442 234 L 442 236 C 443 237 444 237 444 237 C 443 238 443 238 437 240 L 437 238 L 434 238 C 433 241 433 241 430 242 C 434 245 434 245 438 246 C 439 252 444 262 439 268 C 428 268 416 263 413 275 C 414 275 414 276 414 276 C 413 288 412 296 415 307 L 424 307 C 425 309 427 310 428 312 L 429 312 C 433 307 437 306 443 305 C 445 302 448 300 449 297 C 449 284 450 283 456 272 C 460 271 464 271 468 271 C 468 270 469 270 470 269 C 470 269 471 268 471 267 L 478 267 C 478 270 479 272 480 275 C 481 275 482 275 483 276 L 483 277 C 487 280 493 288 496 294 C 495 296 494 298 493 301 C 488 301 488 301 487 302 L 491 306 C 491 306 492 306 493 305 C 495 303 497 300 499 297 L 502 297 C 500 294 499 292 502 288 C 504 290 505 291 507 292 C 505 288 502 283 499 279 C 494 277 483 263 487 257 C 491 263 497 274 503 276 C 505 280 508 285 510 291 L 512 291 C 514 303 514 303 517 309 L 518 308 L 519 309 C 525 304 522 295 521 288 C 523 288 523 288 523 291 C 523 290 524 290 525 290 L 524 289 L 527 289 L 535 274 C 537 269 538 264 541 260 C 541 259 542 258 544 258 L 544 250 L 549 250 C 549 251 549 251 546 253 C 546 253 547 254 548 254 C 549 254 551 253 552 253 C 552 255 552 255 551 257 C 556 260 556 260 561 260 C 561 259 562 258 562 257 C 563 257 564 257 565 256 L 565 254 C 562 254 562 254 560 253 C 563 249 568 249 573 248 C 570 251 568 253 567 258 L 570 258 C 570 260 571 262 571 264 C 578 266 584 270 583 279 C 584 280 584 280 589 282 C 590 284 590 286 590 288 L 594 288 C 595 290 597 293 598 295 C 602 295 602 295 607 293 C 608 289 610 285 611 281 C 609 281 606 280 604 279 L 604 268 C 597 266 601 260 603 255 C 607 241 596 234 603 222 C 611 217 625 216 634 215 C 634 216 635 217 635 218 C 646 217 649 219 660 212 C 660 210 659 197 660 197 C 659 195 659 193 658 192 C 657 191 655 191 654 191 C 653 175 654 158 652 141 C 646 131 652 127 659 119 C 659 114 659 110 660 106 C 658 104 658 104 657 102 C 644 100 642 98 638 98 C 636 96 635 93 633 91 C 632 92 632 92 632 97 C 634 98 635 98 637 99 C 638 102 638 102 639 106 L 635 106 L 635 103 C 634 104 633 106 633 107 C 628 106 626 107 621 108 L 621 106 C 622 105 624 104 625 104 C 619 104 616 106 611 108 C 611 110 610 111 610 113 C 605 113 604 116 599 116 C 599 118 599 119 598 121 L 594 121 C 593 119 593 117 593 115 L 596 115 C 594 110 591 109 586 108 C 584 112 586 117 586 121 C 587 121 588 122 589 122 C 588 125 586 127 585 129 C 581 129 580 129 576 131 C 577 133 577 135 578 137 C 572 135 567 136 561 136 C 561 134 562 132 562 129 C 557 127 552 124 551 118 C 552 118 553 118 555 119 C 555 119 556 121 556 122 C 570 121 570 121 575 119 C 584 110 559 97 552 96 L 552 92 C 546 92 545 92 541 95 C 540 94 540 93 540 92 C 541 91 542 90 542 89 L 542 86 C 538 85 535 83 531 82 C 530 84 529 85 528 87 C 527 86 527 86 528 81 z M 455 226 L 455 218 C 454 217 453 217 452 217 C 450 204 442 195 450 184 L 444 181 C 445 177 445 177 444 175 C 441 175 441 175 436 177 C 435 185 433 189 433 198 L 436 198 L 436 202 C 437 202 438 203 439 203 C 437 206 438 208 438 211 L 433 211 C 432 217 432 217 430 223 C 432 223 434 224 436 224 C 432 226 428 229 424 231 C 424 232 425 233 425 234 C 432 235 448 228 455 226 z M 420.28125 139.34961 C 419.17789 139.41063 418.1875 139.90625 416 141 C 416 142 415 143 415 144 L 419 144 L 419 145 L 415 145 L 415 148 L 419 148 C 419 149 419 149 416 149 C 417 151 417 152 417 154 C 420 154 423 155 425 156 C 434 155 449 157 451 145 L 448 145 L 450 143 C 449 142 448 142 447 141 C 439 141 431 142 424 142 L 424 140 C 422.5 139.625 421.5625 139.39062 420.76562 139.34961 C 420.59961 139.34106 420.43887 139.34089 420.28125 139.34961 z M 419 199 C 418 202 418 202 419 204 C 417 205 416 205 415 206 C 416 217 414 221 415 226 C 426 224 428 220 429 210 L 432 210 L 432 201 C 427 199 424 199 419 199 z M 472 278 C 473 282 473 285 474 288 C 474 288 475 287 476 287 C 475 284 475 281 475 278 L 472 278 z M 517 310 L 517 313 C 520 314 520 314 521 316 L 533 316 C 532 315 532 314 532 313 C 527 311 527 311 517 310 z " />
        <path
           class="continent"
           id="path301"
           d="M 480 306 C 462 307 459 308 452 308 C 445 311 436 317 429 312 L 428 312 C 423 319 421 322 414 326 C 410 341 410 345 397 351 C 395 356 392 370 387 371 C 384 380 385 390 385 399 C 382 408 382 415 384 424 L 387 424 L 387 427 L 389 427 C 391 433 395 447 401 449 C 412 464 421 456 437 457 L 437 454 C 442 454 446 453 451 453 C 453 454 453 454 455 460 C 461 460 461 460 468 463 C 467 467 467 469 468 473 C 466 478 466 479 462 482 C 462 490 468 496 473 502 L 473 503 L 476 503 C 477 507 477 511 477 514 C 476 514 475 515 474 515 C 474 523 475 531 475 539 C 474 539 472 540 471 540 C 465 550 469 560 473 571 C 476 589 477 592 478 601 C 483 610 484 615 484 625 L 482 625 L 482 629 C 483 629 485 630 487 631 C 506 627 519 627 526 609 L 529 609 L 529 606 L 532 606 C 533 601 533 601 535 588 C 545 585 544 575 545 566 C 550 561 550 561 551 559 C 566 555 564 539 564 526 C 563 519 563 512 563 505 C 574 491 581 478 596 466 C 603 455 608 444 612 432 C 611 431 611 430 611 430 C 602 432 590 437 581 431 L 584 431 C 582 426 581 422 579 417 C 578 417 577 417 576 416 C 571 404 569 389 562 378 C 560 369 557 361 555 352 C 557 352 559 353 561 353 C 560 348 558 343 557 338 L 543 338 C 532 334 520 327 508 330 C 507 333 507 333 507 337 C 499 338 492 330 484 328 L 478 325 L 478 322 C 475 322 475 322 475 321 L 479 321 C 479 317 480 314 478 311 C 479 311 479 311 480 310 L 480 306 z M 601 538 C 600 541 600 541 594 546 C 581 551 582 552 580 567 L 578 567 C 575 574 574 583 579 589 C 590 585 598 570 599 559 L 602 559 L 602 555 L 604 555 L 604 538 L 601 538 z " />
        <path
           class="continent"
           id="path303"
           d="M 867 355 C 866 361 866 361 868 366 C 867 365 866 363 865 362 C 865 365 865 368 866 371 C 868 371 868 371 868 373 L 864 373 C 865 376 866 376 868 377 L 870 377 C 871 378 871 379 872 380 L 880 380 C 880 383 881 386 881 388 C 882 388 883 388 884 387 C 884 382 883 380 881 375 C 879 374 877 373 875 373 C 874 370 874 368 874 366 L 875 367 C 876 365 877 363 877 361 C 876 360 876 360 875 360 C 875 358 876 357 876 355 L 867 355 z M 865 382 C 861 386 854 391 853 396 C 861 395 865 390 865 382 z M 868 382 C 869 386 872 388 872 394 L 875 394 C 874 395 873 397 872 399 C 873 399 875 398 876 398 C 878 395 878 395 878 391 C 877 392 876 392 876 392 L 876 390 C 877 389 878 388 880 388 C 876 386 872 382 868 382 z M 821 420 C 820 421 820 422 820 424 L 817 424 C 816 426 815 428 814 431 C 812 432 809 433 806 434 L 806 437 C 803 438 801 439 799 439 C 797 444 796 446 797 451 L 799 451 C 798 455 800 456 802 460 C 813 459 813 459 816 457 C 819 450 820 445 827 440 C 823 435 826 430 829 427 C 828 426 828 425 827 425 C 828 424 829 424 830 424 L 830 421 C 826 420 825 420 821 420 z M 757 429 C 757 431 758 433 758 435 L 761 435 C 764 441 764 441 765 445 C 765 445 766 446 767 446 C 769 453 772 456 775 464 L 779 464 L 779 470 C 781 471 784 472 786 473 L 786 476 C 806 476 806 476 816 478 L 816 476 C 818 476 820 476 822 477 L 822 476 L 820 476 L 820 473 C 810 471 803 467 794 468 L 794 470 C 793 470 792 470 792 469 L 792 466 C 788 464 790 462 788 460 L 787 461 C 786 460 786 458 785 457 C 786 457 787 456 788 456 L 788 453 C 782 452 781 451 780 445 C 779 445 778 446 777 446 C 775 441 772 439 770 433 C 762 430 762 430 757 429 z M 822 476 C 826 476 830 476 834 477 L 834 474 L 838 474 C 837 475 836 475 835 476 L 835 480 C 839 478 843 476 846 474 C 843 472 843 472 840 473 C 835 473 825 470 822 476 z M 849 437 L 849 445 L 853 445 C 853 443 852 441 852 438 C 851 438 850 438 849 437 z M 846 439 C 841 441 836 441 831 441 C 825 449 822 454 821 465 L 825 465 C 826 461 826 458 827 454 L 829 454 L 829 461 L 834 461 L 834 449 C 839 449 839 449 840 447 L 832 447 C 833 446 833 445 833 444 C 838 445 842 443 846 441 L 846 439 z M 891.52148 447.69141 C 888.81665 447.76611 886.25 448.75 884 451 C 884 451 885 452 886 452 L 886 456 L 890 456 C 890 457 890 457 887 457 C 888 458 888 460 888 461 C 889 462 890 462 891 462 L 891 460 L 895 460 C 895 461 894 461 894 462 C 896 462 898 463 900 464 C 901 465 901 466 901 467 C 902 467 903 467 904 468 L 901 474 C 907 475 918 481 919 473 L 922 473 L 922 476 C 926 477 926 479 928 482 C 931 483 934 484 936 485 C 937 484 939 483 940 483 C 938 482 936 482 935 481 L 935 477 L 932 477 C 931 475 931 474 930 472 L 934 472 C 933 471 933 470 933 469 C 932 468 931 468 930 468 L 927 462 C 924 460 905 450 903 452 C 903 453 904 453 904 454 C 902 455 900 457 898 458 L 898 456 C 897 455 896 455 895 455 L 898 449 C 895.8125 448.125 893.62524 447.6333 891.52148 447.69141 z M 948 454 L 948 457 C 951 458 951 458 955 461 C 956 461 958 460 959 460 C 958 459 958 458 958 457 C 954 456 951 455 948 454 z M 955 461 C 948 463 941 464 934 466 C 934 467 934 468 935 469 C 946 467 946 467 954 464 C 955 463 955 462 955 461 z M 848.88281 455.10547 C 846.55005 455.12427 844.0625 455.5625 841 456 L 841 458 L 858 458 C 854.625 455.75 851.88208 455.0813 848.88281 455.10547 z M 882 493 C 881 493 880 493 879 494 C 877 502 877 511 875 515 C 868 516 864 513 857 510 L 857 505 C 859 503 861 503 862 499 C 851 498 851 498 850 499 C 849 498 848 497 848 495 L 845 495 L 845 499 C 839 500 833 501 833 509 C 833 509 832 510 831 510 C 830 510 829 509 829 509 C 829 509 829 508 830 508 L 827 505 C 826 505 824 506 823 506 L 823 509 L 821 507 C 821 509 820 510 820 511 C 811 514 808 520 799 523 L 799 526 C 792 529 785 531 778 535 L 778 537 L 774 537 C 773 542 772 547 774 552 L 772 552 C 772 555 772 555 777 569 C 778 576 778 580 776 587 C 787 592 795 588 806 582 C 811 582 814 583 819 583 C 826 573 839 572 851 574 C 852 577 854 580 856 584 C 859 583 862 582 864 582 C 863 583 862 585 861 586 C 865 586 865 586 866 584 L 866 587 C 865 587 864 588 863 588 C 864 590 864 590 868 590 C 869 593 870 596 870 599 C 872 599 873 599 875 600 C 884 605 881 612 885 621 C 893 619 894 617 896 609 C 893 609 889 608 886 608 C 884 605 884 603 886 600 L 889 603 C 897 602 903 599 911 597 C 914 579 940 543 908 535 C 908 534 907 533 907 532 C 906 532 905 531 904 531 L 904 527 C 894 524 894 514 889 506 L 888 507 C 884 503 883 499 882 493 z M 964 522 C 964 529 969 535 965 542 C 970 547 971 548 972 556 C 974 556 976 555 978 555 C 983 547 983 547 985 540 L 982 534 C 982 535 981 535 981 536 C 979 536 976 535 974 535 C 973 534 972 532 971 531 L 970 532 C 967 529 967 525 964 522 z M 960 548 C 959 552 957 555 956 559 C 954 559 952 560 950 560 C 949 567 944 573 937 573 C 929 589 940 584 948 594 C 954 591 956 585 959 579 L 962 579 C 969 561 969 561 971 559 L 968 559 C 968 558 969 557 969 556 C 968 554 968 554 964 553 C 964 552 963 550 963 548 L 960 548 z " />
        <path
           class="continent"
           id="path305"
           d="M 229 357 C 227 358 226 358 224 358 C 219 361 216 361 212 363 C 208 366 204 369 200 371 C 200 373 201 375 201 377 C 200 376 199 376 198 375 C 198 372 197 371 195 369 L 195 374 L 192 374 C 191 377 190 381 190 384 C 191 385 192 385 193 385 C 192 393 189 399 188 406 C 185 412 177 421 181 428 L 184 425 C 184 429 182 430 180 432 L 180 439 C 188 444 200 466 205 473 C 209 475 213 477 217 480 L 217 482 C 220 484 223 486 227 487 C 229 515 228 548 223 576 C 224 576 225 577 226 577 L 226 590 L 222 590 L 222 596 L 224 596 C 224 597 224 597 222 597 L 222 601 L 224 601 C 224 602 224 603 223 604 C 224 606 224 606 227 606 C 228 615 228 624 237 629 L 237 633 C 239 634 241 634 242 635 C 243 635 244 634 244 634 L 244 637 L 249 637 L 249 641 L 252 641 C 252 642 252 642 251 643 C 264 646 263 647 277 643 C 271 639 265 636 259 633 L 259 630 L 256 630 C 256 629 256 628 255 627 C 256 626 257 626 257 625 L 253 621 C 253 618 256 613 255 610 C 256 610 257 609 258 609 C 258 606 258 604 259 601 C 258 601 257 600 256 600 C 256 595 256 595 260 591 C 259 590 259 589 259 588 L 261 588 L 261 585 L 259 585 C 259 584 259 584 262 583 C 261 582 260 581 260 580 L 260 576 C 260 577 261 577 261 578 L 267 578 C 268 575 268 575 269 569 C 272 567 282 566 285 564 L 285 556 C 285 557 284 557 284 557 C 282 554 282 554 277 549 C 284 549 288 553 296 550 C 297 548 297 547 297 546 C 300 546 300 546 300 544 L 302 544 C 304 538 307 532 313 529 C 313 520 313 517 318 509 L 322 509 L 322 506 C 342 502 341 501 353 483 L 353 467 C 354 467 355 467 356 466 C 356 463 357 459 357 456 C 368 448 370 443 371 429 C 358 426 347 416 333 417 L 333 415 C 327 413 322 413 317 412 C 318 411 319 409 320 407 L 313 407 C 311 398 312 394 304 391 C 301 389 290 385 285 382 C 285 383 284 383 283 384 C 279 380 276 378 270 377 C 270 375 270 374 269 373 L 267 373 C 264 362 256 364 246 364 C 241 362 238 361 233 362 L 233 365 C 232 365 232 365 231 366 L 231 369 C 230 367 229 366 228 364 C 230 363 231 361 232 360 L 229 357 z M 313.20312 614.95117 C 310.29395 614.97314 307.9375 616.0625 304 620 C 304 623 304 626 305 629 C 306 630 307 631 309 631 C 310 631 311 631 313 630 C 316 624 317 623 323 621 C 322 619 322 617 322 616 C 318.0625 615.5625 315.46582 614.93408 313.20312 614.95117 z M 301 616 C 298 617 295 618 292 620 C 293 621 294 623 295 624 C 293 624 292 625 291 625 L 291 627 C 294 628 294 628 295 630 C 299 629 299 629 302 626 C 301 623 301 619 301 616 z " />
        <path
           class="continent"
           id="path307"
           d="M 309 17 C 299 18 289 19 279 19 C 278 20 278 21 277 22 C 274 22 272 21 269 21 C 269 23 268 26 268 28 C 266 28 264 29 263 30 C 263 31 264 31 265 32 C 278 32 292 26 305 31 C 292 32 278 30 267 37 L 267 40 C 270 40 274 41 277 41 C 276 42 276 42 276 43 C 268 44 268 44 267 46 C 270 46 273 47 277 48 L 277 51 L 274 51 C 274 50 273 49 273 48 L 270 48 C 269 49 269 50 268 51 L 259 51 C 259 52 259 53 260 54 C 263 56 264 56 268 55 C 268 56 268 57 269 58 L 273 58 C 273 59 274 60 274 61 C 276 61 278 62 281 62 C 281 61 281 61 282 60 C 282 60 283 60 284 61 L 284 63 C 286 64 288 64 290 65 C 292 64 294 64 296 63 C 294 59 293 58 293 53 C 297 56 298 57 303 57 L 303 54 C 306 51 306 51 313 49 C 312 48 312 47 312 46 C 314 44 332 39 333 38 C 333 37 332 37 332 36 C 334 35 336 36 340 36 L 340 33 C 346 30 349 30 350 29 C 355 21 341 23 337 22 C 336 21 336 19 336 17 C 327 19 327 19 309 20 L 309 17 z M 414.47266 17.810547 C 407.27002 17.823975 399.0625 18.8125 397 25 L 395 25 L 395 22 C 391 23 388 23 385 23 C 385 26 385 29 386 32 C 374 32 374 32 373 34 L 374 35 C 366 37 366 37 364 38 C 364 37 363 36 363 35 C 361 35 359 35 357 36 C 357 36 357 37 356 38 C 355 38 354 37 352 37 L 352 40 C 351 40 349 36 346 36 C 345 37 344 39 344 41 C 343 40 342 39 341 39 C 338 40 338 40 337 44 L 331 44 L 331 46 C 324 48 320 50 314 53 C 315 54 316 55 318 56 C 312 60 304 56 302 63 C 305 64 308 64 310 64 L 310 67 C 303 65 303 65 300 66 C 301 69 301 72 302 76 C 305 77 305 77 310 78 L 310 75 C 311 75 311 75 312 78 C 320 80 322 76 329 75 C 330 78 330 78 332 80 C 333 80 335 79 336 79 L 336 83 C 346 86 348 98 348 108 C 350 108 351 108 353 107 L 356 113 C 354 113 354 113 348 110 C 347 112 347 112 346 116 C 347 117 347 117 348 117 C 348 118 347 118 347 119 L 347 123 L 351 123 C 351 121 350 120 350 119 L 356 119 C 356 120 356 120 354 120 C 353 122 352 125 352 127 L 350 125 C 348 129 346 131 350 134 C 349 134 348 134 347 135 L 347 140 C 348 140 349 141 349 141 C 350 145 351 148 352 152 C 351 153 350 153 350 154 C 351 155 352 155 354 156 C 354 158 354 160 355 161 C 355 162 356 162 357 162 C 358 163 358 164 358 165 C 361 166 363 166 365 166 C 367 171 369 172 373 174 C 377 168 379 164 381 156 C 385 150 389 147 389 140 C 395 138 402 138 409 136 L 409 133 C 414 133 416 131 421 127 L 421 129 C 431 127 439 122 449 119 C 449 118 450 116 451 115 C 448 114 445 114 442 113 C 444 112 445 112 447 111 L 447 106 C 448 106 449 110 452 114 C 455 114 455 114 457 115 C 458 113 459 111 461 109 C 460 106 459 103 459 100 C 456 99 454 98 452 97 C 455 94 458 97 461 98 L 461 95 C 462 95 462 98 464 98 C 465 92 464 88 472 87 L 472 83 C 470 82 468 82 466 82 L 466 79 C 467 79 468 78 469 78 L 469 72 C 470 72 471 72 471 71 L 471 67 L 468 67 C 468 64 468 61 469 58 C 473 57 474 52 476 48 L 480 48 C 480 47 480 45 479 45 C 488 43 488 43 489 42 C 488 41 488 40 487 39 C 480 40 473 40 466 41 C 466 42 465 42 465 43 C 462 40 457 41 453 41 L 453 38 C 460 38 462 38 466 34 C 463 31 458 33 453 34 C 455 33 457 32 459 32 L 459 29 C 445 28 436 24 423 21 L 423 18 C 420.8125 18 417.74658 17.804443 414.47266 17.810547 z M 235 44 C 232 52 237 51 241 57 C 243 53 243 52 242 48 C 240 47 240 47 235 44 z M 246 46 C 247 51 247 57 252 58 L 252 66 L 257 66 C 260 71 263 72 268 74 C 274 74 281 73 287 73 C 288 71 288 68 288 66 C 280 66 272 65 264 65 C 262 62 260 59 259 55 L 256 55 C 254 51 253 51 249 49 L 249 46 L 246 46 z M 224 52 L 224 57 C 226 56 227 56 228 56 L 228 52 L 224 52 z M 196.46875 61.96875 C 190.1875 62.0625 182.5 63 181 69 L 185 69 C 185 69 185 70 186 71 C 188 70 191 69 194 68 C 194 68 194 69 195 69 C 194 70 192 71 191 71 L 191 74 C 193 74 194 74 196 75 C 196 75 195 75 195 76 C 196 77 197 77 199 78 C 210 75 215 75 226 74 C 226 73 226 71 227 70 L 223 70 C 223 69 223 69 226 69 L 226 65 C 220 65 216 63 212 66 C 212 67 212 68 213 69 C 211 69 209 69 207 70 C 207 69 206 68 205 67 L 197 67 C 199 65 199 65 202 65 L 202 62 C 200.5 62 198.5625 61.9375 196.46875 61.96875 z M 246 62 C 244 63 241 64 238 65 L 238 67 C 237 66 236 65 236 63 L 232 63 C 232 66 231 70 231 73 C 234 73 237 73 240 75 C 243 71 243 71 248 68 C 248 66 247 64 246 62 z M 174 71 L 174 74 C 170 76 170 76 164 77 L 164 81 C 162 81 161 81 159 82 C 159 84 160 86 160 88 C 164 86 164 86 173 86 C 173 85 174 84 174 83 C 178 81 182 80 186 78 C 186 77 187 76 187 75 C 185 75 183 75 180 76 C 180 74 180 73 179 71 L 174 71 z M 252 71 L 252 79 L 256 79 C 256 77 256 75 255 72 C 254 72 253 72 252 71 z M 222 78 C 221 82 219 86 218 90 C 215 89 215 88 213 85 C 211 86 211 86 210 88 C 208 88 205 87 202 86 C 203 86 203 86 204 85 C 200 83 198 84 195 80 C 188 80 187 81 181 82 C 181 83 181 84 182 85 C 183 85 185 86 187 86 C 179 88 179 88 178 89 C 179 90 181 90 182 90 C 180 91 178 92 176 92 C 176 95 177 98 178 100 C 182 101 187 101 191 102 C 192 104 194 107 195 110 C 203 108 211 107 219 105 C 223 107 224 107 228 107 C 228 106 227 105 227 104 C 228 103 229 103 231 102 C 230 102 230 101 229 101 C 230 101 231 101 232 100 L 232 98 C 229 97 227 96 224 95 C 225 88 225 84 222 78 z M 272 78 C 255 80 249 89 246 106 L 249 106 L 249 108 L 243 108 L 243 104 C 240 104 238 104 235 105 C 236 107 236 107 237 111 C 235 111 233 112 231 112 C 222 110 218 109 209 110 C 209 111 212 111 212 112 L 208 112 L 208 115 L 205 115 L 205 112 C 199 113 196 114 190 114 L 190 111 L 192 111 L 192 108 C 183 106 174 100 165 104 L 165 102 L 168 102 L 168 99 C 162 100 160 101 158 101 C 158 100 159 99 159 98 C 155 98 154 98 151 101 L 145 101 L 146 102 C 141 102 133 102 128 105 C 126 104 126 104 119 102 C 120 102 121 101 122 101 C 121 101 121 100 121 100 C 115 100 115 100 111 101 C 111 102 111 103 110 104 C 108 103 105 102 103 100 C 89 99 76 94 63 94 C 63 93 64 92 64 91 C 54 90 44 97 35 99 L 35 102 C 33 102 32 102 31 103 C 30 107 33 111 35 115 L 26 115 L 26 120 C 26 120 26 119 25 119 C 24 121 23 123 22 124 C 28 129 29 130 36 126 C 37 129 34 132 32 135 C 26 134 22 132 17 135 C 16 136 16 138 16 140 C 16 140 17 140 18 141 C 17 141 16 142 14 143 C 15 145 15 147 16 149 C 19 148 21 147 22 152 L 25 152 C 23 156 23 156 23 159 C 25 159 27 159 28 158 L 28 156 C 30 156 30 156 30 158 C 32 158 35 158 37 157 C 36 161 36 163 32 164 L 32 166 C 26 168 21 170 16 174 C 21 178 39 168 45 165 L 45 162 C 47 161 50 159 52 157 L 52 152 C 57 153 61 147 67 146 C 64 148 62 150 59 152 L 59 156 C 63 155 68 153 76 151 C 75 149 74 147 73 146 C 74 145 74 145 75 145 C 78 147 78 147 81 147 C 83 150 83 151 86 152 C 86 151 87 150 87 150 C 87 150 88 151 89 151 L 87 153 C 88 153 89 154 90 154 C 90 153 91 153 91 152 C 92 152 93 152 93 153 L 93 156 C 95 157 97 158 99 158 C 99 158 99 157 100 156 C 102 157 105 159 108 160 C 108 161 108 161 105 161 L 105 164 L 109 164 C 111 169 118 179 122 181 L 122 184 C 122 183 122 183 121 182 L 121 187 L 125 187 L 133 195 C 133 197 132 199 132 201 C 134 202 135 204 136 205 C 138 209 138 209 139 214 L 135 214 C 129 242 129 251 144 275 C 144 276 144 278 145 279 C 150 282 151 286 153 292 C 153 293 152 293 152 294 C 154 298 155 299 159 300 C 160 306 163 314 169 316 C 166 304 162 295 158 284 C 159 284 159 283 160 283 C 165 292 167 303 176 310 C 176 311 177 313 177 314 L 173 314 L 173 317 C 183 322 191 327 201 333 C 203 342 203 342 203 349 C 206 354 209 359 212 363 C 216 361 219 361 224 358 C 219 354 217 355 211 354 C 211 354 210 353 210 352 C 213 346 215 345 221 341 L 221 335 L 215 332 C 219 329 226 326 228 321 C 225 315 218 315 214 319 L 202 319 C 195 315 195 301 197 293 C 199 292 199 292 202 287 C 213 283 222 282 232 287 C 232 285 231 283 231 281 C 241 282 243 283 251 283 C 250 289 250 289 252 303 C 254 302 256 302 258 301 C 261 294 261 287 261 279 C 263 275 263 275 264 271 C 270 269 277 265 281 260 L 281 254 C 282 254 282 255 283 255 C 284 253 285 251 286 250 C 301 247 304 230 319 229 C 323 228 323 228 324 229 C 322 230 321 231 319 232 L 319 235 C 327 234 331 228 340 225 L 340 222 L 330 222 C 330 216 330 216 328 215 C 329 214 330 214 332 214 C 331 212 331 211 331 210 C 329 209 326 208 324 207 C 328 202 339 208 346 201 C 352 199 352 199 361 197 C 361 194 360 191 360 188 L 351 188 C 351 186 351 186 355 184 C 352 182 349 180 347 178 C 345 171 344 161 341 154 C 339 154 337 155 336 156 C 335 158 335 160 335 161 L 329 164 L 329 166 C 327 166 326 166 324 165 C 323 163 321 161 320 158 L 323 158 C 322 155 322 155 319 149 L 315 149 C 315 148 314 147 314 146 C 309 146 304 147 299 144 C 298 152 299 158 291 160 C 293 166 294 168 294 175 C 290 178 288 180 283 181 C 283 187 283 193 281 198 L 278 198 C 274 192 273 189 273 181 C 265 182 257 178 250 176 L 250 173 C 247 171 244 170 242 168 C 241 166 241 164 241 162 C 240 162 239 162 238 161 L 238 156 C 240 152 242 149 243 145 C 250 141 258 138 263 133 C 261 131 259 129 258 127 C 261 127 262 129 265 131 C 268 130 268 129 270 126 C 284 127 288 119 288 107 C 289 106 291 106 292 106 C 292 106 293 107 293 108 C 296 107 298 106 301 106 C 301 103 301 103 302 103 C 303 106 303 108 304 111 L 306 111 L 306 114 C 305 114 304 114 303 115 C 303 115 303 117 302 118 C 305 117 307 117 309 117 C 309 119 310 120 310 122 C 311 121 313 121 314 121 C 314 122 315 123 315 124 C 310 125 306 127 297 130 C 297 131 296 132 296 133 C 301 134 306 134 311 134 C 313 142 319 143 327 144 C 325 140 325 140 325 138 C 328 141 329 141 333 141 C 333 138 333 135 334 132 L 331 129 C 331 123 331 123 332 122 C 334 127 334 127 336 129 C 337 129 338 129 340 128 C 341 127 342 125 343 123 L 341 123 C 340 120 339 117 338 115 L 333 115 L 333 112 L 329 112 L 329 110 L 333 110 C 333 109 334 108 334 107 C 332 106 329 104 327 103 C 327 102 328 101 328 100 L 324 100 C 324 99 325 99 325 98 C 324 97 324 97 316 96 C 317 95 317 94 317 93 C 316 92 316 92 307 87 C 306 88 306 88 306 94 L 300 94 C 301 90 302 87 304 83 L 292 83 C 292 85 291 87 291 89 C 288 91 287 93 285 96 C 285 95 284 93 284 91 C 285 89 287 87 288 85 C 282 85 279 87 274 89 C 273 97 272 98 276 104 L 277 103 C 278 104 278 105 278 106 L 286 106 L 286 107 L 278 107 C 278 108 277 110 277 111 C 276 111 275 112 274 112 L 274 115 L 270 115 C 270 113 270 111 269 109 C 268 108 267 108 265 107 C 265 108 264 110 263 111 C 260 102 258 98 260 88 C 267 88 268 84 272 78 z M 241 81 C 241 81 240 82 240 83 L 239 82 C 238 83 237 84 236 86 C 236 85 236 84 235 83 C 234 84 233 85 233 86 C 233 89 234 92 235 95 C 238 94 241 93 245 92 L 245 90 C 248 89 248 89 251 84 C 249 84 246 85 243 86 C 244 84 244 82 245 81 L 241 81 z M 301 116 C 295 118 295 118 296 124 C 298 123 299 122 301 122 L 301 116 z M 270 130 C 267 135 265 140 264 145 C 270 144 272 141 278 140 L 278 144 L 281 144 C 282 141 282 141 283 139 C 280 137 279 137 278 133 L 275 133 L 275 131 C 274 131 272 131 270 130 z M 49.273438 164.88086 C 45.757812 164.61719 44 169.1875 44 172 C 46 170 49 169 51 168 C 51 167 51 166 50 165 C 49.75 164.9375 49.507812 164.89844 49.273438 164.88086 z M 109 174 C 108 175 108 176 107 176 C 109 179 111 181 112 184 L 112 177 L 109 174 z M 364 198 C 358 199 350 203 349 209 L 346 209 C 345 211 344 212 344 214 C 346 215 349 215 351 215 L 351 218 C 353 217 354 216 355 215 C 356 217 357 218 357 219 C 360 218 363 218 365 217 C 366 216 366 215 366 214 C 365 214 364 213 363 213 L 363 210 C 363 210 364 209 365 209 C 364 208 363 206 363 205 C 362 205 361 205 360 206 C 359 205 359 204 359 203 L 363 203 C 363 202 363 200 364 198 z M 251.17383 208.46094 C 259.64932 208.30453 257.5 217.09375 270 221 C 270 223 271 225 271 227 C 270 226 268 226 267 225 C 266 230 266 230 264 231 L 264 230 L 260 230 C 262 226 263 224 260 221 C 258 222 257 223 256 226 L 254 226 C 253 229 253 233 252 236 C 251 237 249 237 247 238 C 248 230 250 227 254 221 L 259 221 L 259 218 C 255 217 255 217 253 218 C 253 217 252 216 251 215 C 247 216 243 216 238 217 L 238 214 L 241 214 L 241 211 C 245.59375 209.25 248.80069 208.50473 251.17383 208.46094 z " />
        <path
           class="continent"
           id="path309"
           d="M 727.11523 44.455078 C 725.79688 44.390625 724.25 44.625 722 45 C 721 46 721 48 720 49 C 721 51 721 51 725 53 C 728 51 731 50 734 48 C 730.875 45.5 729.3125 44.5625 727.11523 44.455078 z M 725 53 L 718 53 C 717 57 717 57 718 59 C 721 59 722 57 726 57 C 726 55 725 54 725 53 z M 737.17383 50.367188 C 732.59375 50.25 729.625 51.5 729 59 C 734 61 734 61 744 62 C 745 57 745 57 747 54 L 747 51 C 743.25 51 739.92188 50.4375 737.17383 50.367188 z M 747 54 C 749 64 749 64 750 65 L 756 65 C 755 63 754 60 754 58 C 753 59 753 59 752 59 C 751 58 751 58 750 54 L 747 54 z M 757.48828 66.873047 C 755.625 66.84375 753.375 67.5 750 69 C 750 70 750 72 749 74 C 743 75 743 75 740 73 C 731 73 719 81 711 84 L 713 86 C 711 88 709 90 706 91 L 706 87 C 703 88 700 90 697 91 C 697 96 698 97 701 100 L 702 99 L 702 107 L 704 107 L 704 110 L 707 110 L 707 112 C 699 110 701 104 693 99 C 693 99 693 100 692 100 C 692 103 692 103 694 107 C 688 105 687 105 685 99 L 682 102 C 683 107 683 113 684 119 C 687 118 690 118 693 118 C 695 125 695 125 694 128 C 693 127 692 127 692 127 L 689 124 L 685 124 C 685 131 685 131 683 135 C 676 137 676 137 670 137 L 679 131 C 680 126 680 121 680 116 C 672 111 675 107 679 99 C 675 97 671 95 667 92 C 663 96 663 102 660 106 C 659 110 659 114 659 119 C 652 127 646 131 652 141 C 654 158 653 175 654 191 C 655 191 657 191 658 192 C 659 193 659 195 660 197 C 659 197 660 210 660 212 C 660 212 646 217 635 218 C 635 217 634 216 634 215 C 625 216 611 217 603 222 C 596 234 607 241 603 255 C 610 251 614 250 621 250 L 621 259 L 619 259 C 618 258 618 257 618 256 C 615 261 614 262 613 268 C 616 269 618 270 620 271 C 620 279 620 279 622 280 C 623 277 623 277 622 273 L 625 273 L 625 283 C 624 283 623 284 622 284 L 622 292 C 623 292 624 293 625 293 C 626 295 627 298 627 301 L 627 305 C 621 307 617 306 610 305 C 609 302 609 302 608 294 C 603 296 603 296 599 296 C 598 294 596 291 595 289 L 591 289 C 591 287 591 285 590 283 C 586 281 586 281 585 280 C 577 282 573 281 571 282 C 566 275 560 278 551 278 L 551 281 L 543 281 C 541 279 540 277 538 275 L 530 290 C 530 296 533 301 535 311 C 537 311 539 311 540 310 C 540 311 541 312 541 313 L 550 310 L 552 312 C 560 311 560 311 563 309 C 564 309 564 310 565 310 C 563 321 566 330 559 338 C 560 343 562 348 563 353 C 567 362 574 371 574 380 C 584 393 590 406 590 422 C 601 418 631 410 635 396 C 636 396 638 396 639 395 C 640 392 640 389 641 386 L 642 387 C 644 384 646 381 647 377 C 644 371 640 370 637 362 C 632 366 628 369 624 372 C 623 371 622 371 621 370 C 621 367 624 363 621 361 C 620 362 619 363 618 365 L 612 353 L 609 353 C 607 349 605 347 605 343 C 617 340 616 343 620 355 C 621 356 622 356 624 356 C 624 357 624 358 625 359 C 634 360 638 359 640 359 L 640 365 C 645 364 651 364 656 363 L 669 363 C 670 367 670 369 674 370 C 674 371 674 372 675 373 C 676 373 677 374 679 375 C 677 375 676 376 675 377 C 676 381 680 382 684 382 C 685 381 686 380 686 378 C 687 380 687 380 685 385 C 686 387 686 387 686 402 L 701 441 L 705 441 L 708 438 C 707 437 707 436 707 435 L 712 435 C 713 424 717 414 718 403 C 724 401 734 383 737 376 C 745 375 750 373 757 369 L 757 373 C 773 377 764 396 771 408 L 773 408 C 775 418 775 420 782 426 L 786 426 C 785 420 786 415 785 409 C 783 408 781 407 778 406 C 770 395 775 393 776 382 L 777 382 L 777 386 L 781 386 L 781 388 C 783 389 785 389 788 390 L 788 394 L 790 394 C 791 398 791 398 792 400 C 796 398 796 396 798 392 L 803 392 C 806 385 806 380 806 371 L 803 371 L 803 369 C 802 368 801 368 800 367 C 800 366 799 365 799 363 C 797 363 796 362 794 362 C 794 359 795 356 795 354 C 797 352 799 350 802 349 C 807 350 807 353 812 354 L 812 349 C 825 351 855 322 848 308 L 850 308 L 850 304 L 848 304 C 848 303 848 303 850 303 C 850 301 850 300 849 298 C 848 298 847 297 845 297 C 846 296 847 296 848 295 C 846 294 846 294 843 293 C 842 290 842 290 839 287 C 843 284 846 283 852 281 L 852 279 C 843 278 841 279 838 279 C 838 278 838 277 839 276 C 837 276 836 275 835 275 C 834 274 833 272 832 271 C 835 272 835 272 836 271 C 840 268 842 265 845 263 C 847 267 846 267 846 272 C 850 270 853 270 858 270 C 857 274 858 274 860 277 C 860 276 861 276 861 275 C 864 279 864 280 863 285 C 868 285 870 283 874 280 C 874 273 869 266 863 263 L 863 260 C 868 255 868 251 872 245 L 873 246 L 878 246 C 881 240 885 234 889 229 C 891 214 890 199 884 186 C 882 185 880 185 878 185 C 878 186 877 188 877 189 C 876 188 876 187 876 186 C 873 185 869 184 866 183 C 869 178 872 172 877 170 C 881 158 909 164 921 164 L 921 161 C 920 161 919 160 918 160 C 919 155 919 155 920 152 C 923 151 926 151 929 150 C 929 152 929 154 930 156 L 935 156 C 936 153 938 151 940 149 C 939 148 939 148 939 147 C 942 145 943 145 946 145 C 945 145 944 146 943 146 C 937 163 922 164 924 186 C 927 191 930 197 934 202 C 934 202 935 201 936 201 C 939 194 940 192 940 185 C 945 183 945 179 945 173 L 942 173 C 943 170 944 168 945 165 L 942 165 C 942 163 946 163 946 160 C 946 159 945 159 944 159 C 945 157 947 156 948 155 C 949 156 950 158 951 159 C 957 156 958 157 965 158 C 968 153 974 146 979 143 C 979 144 979 144 980 145 L 985 145 L 985 140 L 982 140 C 982 138 983 136 983 134 C 981 134 979 134 977 133 L 977 131 L 985 131 L 985 122 C 986 124 987 126 987 128 C 990 128 992 127 995 127 L 995 129 C 996 130 997 130 998 130 C 998 134 998 134 1000 135 C 1008 135 1008 135 1009 134 C 1008 134 1006 134 1005 133 L 1005 131 C 1007 131 1009 132 1010 132 C 1011 127 1011 127 1013 123 C 1011 123 1010 123 1009 124 C 1004 118 1004 118 1000 116 C 1000 117 999 118 999 119 C 996 116 994 115 992 111 C 989 110 989 110 981 105 C 976 105 976 105 974 104 L 976 102 C 972 103 972 103 970 104 C 970 103 970 102 969 100 L 951 100 L 951 103 L 954 103 L 954 106 L 958 106 C 954 110 934 102 930 102 C 929 103 929 104 929 105 C 928 105 927 105 926 106 L 926 103 C 924 102 922 102 921 101 L 922 100 C 908 96 893 94 878 92 C 878 91 878 91 881 91 L 881 88 C 873 89 873 89 869 91 L 869 88 C 867 89 864 89 861 89 C 862 90 862 92 862 94 C 864 94 865 95 867 96 C 864 96 862 97 859 97 C 857 94 853 98 849 95 C 848 97 847 99 846 100 C 841 100 838 96 833 96 C 833 95 833 94 832 92 C 833 92 834 92 835 91 C 832 83 820 87 813 87 L 813 90 L 817 90 C 816 91 815 92 814 92 C 812 92 810 91 808 90 C 807 89 807 88 807 87 C 802 87 795 85 793 91 C 791 89 791 89 786 88 L 786 91 L 784 91 C 783 90 783 89 783 88 C 778 88 775 92 770 92 L 785 83 C 785 79 786 77 784 74 C 779 73 774 73 770 73 L 770 75 C 768 75 768 75 767 72 C 762.625 68.875 760.59375 66.921875 757.48828 66.873047 z M 848 71 C 847 72 847 73 847 74 L 842 74 L 842 77 C 846 79 855 84 857 77 C 855 76 853 76 852 75 C 851 74 851 73 851 72 C 850 72 849 72 848 71 z M 862 73 L 862 77 L 872 77 C 866 73 866 73 862 73 z M 859 83 C 858 84 857 86 857 87 C 862 86 863 85 868 84 C 867 83 867 83 859 83 z M 967 93 C 963 93 963 93 960 95 C 960 96 959 97 959 98 C 960 98 961 99 962 99 L 964 99 C 965 95 965 95 967 93 z M 893 184 C 889 203 898 209 901 226 C 902 226 903 227 904 227 C 904 229 905 231 905 232 C 902 233 902 233 900 237 L 900 242 L 904 242 C 903 238 903 238 905 236 L 905 239 C 906 239 907 238 908 238 C 908 239 909 240 909 240 L 907 240 L 907 245 C 905 244 905 244 902 244 C 901 250 902 252 903 259 L 900 259 C 899 263 898 264 900 268 C 898 268 896 267 894 267 C 891 271 883 279 878 281 L 878 284 C 885 283 891 277 898 275 C 899 276 899 277 900 277 C 894 278 890 279 886 285 C 886 286 887 287 887 288 C 888 288 889 288 889 289 C 894 285 897 285 900 280 L 900 283 C 902 282 905 281 907 280 L 907 275 C 908 274 910 274 912 274 C 914 269 912 266 911 261 C 915 252 906 241 918 239 C 918 237 917 235 917 232 L 912 232 L 912 230 C 906 226 905 220 905 213 C 906 213 907 214 908 214 C 907 209 905 207 901 204 C 901 197 899 187 893 184 z M 887 288 C 884 286 884 286 876 285 L 876 293 C 877 292 879 292 880 291 C 880 295 878 296 878 301 C 880 301 881 300 883 300 C 883 298 884 295 885 293 L 887 293 L 887 288 z M 557 315 C 553 315 551 315 547 317 C 547 318 548 320 548 321 C 553 320 554 319 557 315 z M 846 330 L 846 333 L 844 333 C 842 337 842 337 841 345 C 848 341 848 338 850 330 L 846 330 z M 812 355 C 810 356 807 356 805 356 C 804 358 804 359 803 361 C 806 360 809 360 812 359 L 812 355 z M 710 438 C 710 441 709 445 709 448 C 711 449 712 451 713 452 C 715 451 716 450 718 449 C 718 444 717 443 714 438 L 710 438 z " />
      </g>
    </g>
  </g>
  <path
     id="hilite"
     fill="white"
     stroke-width="8"
     stroke="black"
     opacity="0.3" />
  <g
     id="border"
     stroke="black"
     fill="none"
     visibility="visible"
     stroke-width="2">
    <path
       d="m 358,165 -11,13 z"
       id="east_coast-greenland" />
    <path
       d="M 383.0249,388.21494 333,417 Z"
       id="brazil-north_west_africa" />
    <path
       d="m 421,127 3,13 z"
       id="greenland-iceland" />
    <path
       d="m 450,143 28,-14 z"
       id="iceland-scandinavia" />
    <path
       d="m 461,176 -11,8 z"
       id="great_britain-scandinavia" />
    <path
       d="m 452,217 15,-6 z"
       id="great_britain-western_europe" />
    <path
       d="m 425,156 11,21 z"
       id="iceland-great_britain" />
    <path
       d="m 452,308 4,-36 z"
       id="western_europe-north_west_africa" />
    <path
       d="M 466.06553,307.25033 496,294 Z"
       id="southern_europe-north_west_africa" />
    <path
       d="m 508,330 -6,-33 z"
       id="southern_europe-egypt" />
    <path
       d="M 594,546 579.20839,483.71166 Z"
       id="east_africa-madagascar" />
    <path
       d="m 578,567 -33,-1 z"
       id="south_africa-madagascar" />
    <path
       d="m 936,201 -24,29 z"
       id="kamchatka-japan" />
    <path
       d="m 873,246 27,22 z"
       id="central_east_asia-japan" />
    <path
       d="m 806,434 -8,-42 z"
       id="siam-indonesia" />
    <path
       d="m 840,447 44,4 z"
       id="indonesia-new_guinea" />
    <path
       d="m 786,476 13,47 z"
       id="indonesia-australian_territory" />
    <path
       d="m 901,474 -12,32 z"
       id="new_guinea-australian_territory" />
	<path
       d="m 582.06324,393.66442 -10.54913,9.30805 z"
       id="east_africa-south_asia" />
	<path
       d="m 497.00001,178.00001 9,23 z"
       id="scandinavia-western_europe" />
	<path
       d="M 26,115 0,114.70588 Z"
       id="alaska-kamchatka" />
    <path
       d="m 1013,123 11.1176,-0.0588 z"
       id="kamchatka-alaska" />
  </g>
  <g id="circle" fill="#f9f9f9">
  <circle
     id="path122"
     cx="307.34329"
     cy="450.67163"
     r="13.298508" />
  <circle
     id="path122-8"
     cx="224.59702"
     cy="387.13434"
     r="13.298508" />
  <circle
     id="path122-1"
     cx="250.08966"
     cy="517.16418"
     r="13.298508" />
  <circle
     id="path122-7"
     cx="452.14929"
     cy="406.34329"
     r="13.298508" />
  <circle
     id="path122-6"
     cx="558.53729"
     cy="443.2836"
     r="13.298508" />
  <circle
     id="path122-87"
     cx="505.34329"
     cy="570.35822"
     r="13.298508" />
  <circle
     id="path122-62"
     cx="480.22391"
     cy="224.597"
     r="13.298508" />
  <circle
     id="path122-622"
     cx="515.68658"
     cy="356.10446"
     r="13.298508" />
  <circle
     id="path122-5"
     cx="506.82089"
     cy="271.88062"
     r="13.298508" />
  <circle
     id="path122-4"
     cx="416.68658"
     cy="217.20895"
     r="13.298508" />
  <circle
     id="path122-0"
     cx="576.26868"
     cy="184.70148"
     r="13.298508" />
  <circle
     id="path122-72"
     cx="640.19464"
     cy="336.34332"
     r="13.298508" />
  <circle
     id="path122-60"
     cx="660.49255"
     cy="248.2388"
     r="13.298508" />
  <circle
     id="path122-02"
     cx="684.13434"
     cy="166.97015"
     r="13.298508" />
  <circle
     id="path122-725"
     cx="774.26862"
     cy="134.46268"
     r="13.298508" />
  <circle
     id="path122-2"
     cx="768.35822"
     cy="292.56717"
     r="13.298508" />
  <circle
     id="path122-9"
     cx="840.76117"
     cy="214.25374"
     r="13.298508" />
  <circle
     id="path122-92"
     cx="805.67175"
     cy="446.05984"
     r="13.298508" />
  <circle
     id="path122-06"
     cx="925.37372"
     cy="447.71643"
     r="13.298508" />
  <circle
     id="path122-52"
     cx="852.58209"
     cy="543.76117"
     r="13.298508" />
  <circle
     id="path122-54"
     cx="65.014923"
     cy="122.64179"
     r="13.298508" />
  <circle
     id="path122-64"
     cx="248.23882"
     cy="258.58209"
     r="13.298508" />
  <circle
     id="path122-17"
     cx="168.44775"
     cy="236.41789"
     r="13.298508" />
  <circle
     id="path122-22"
     cx="166.97015"
     cy="155.14925"
     r="13.298508" />
  <circle
     id="path122-79"
     cx="394.5224"
     cy="84.223892"
     r="13.298508" />
    <circle
     id="path122-64-1"
     cx="233.46268"
     cy="186.17912"
     r="13.298508" />
  <circle
     id="path122-64-5"
     cx="480.22388"
     cy="153.67163"
     r="13.298508" />
  <circle
     id="path122-64-7"
     cx="203.91046"
     cy="313.25375"
     r="13.298508" />
  <circle
     id="path122-64-79"
     cx="919.07458"
     cy="267.44775"
     r="13.298508" />
  <circle
     id="path122-64-0"
     cx="939.76123"
     cy="122.64178"
     r="13.298508" />
  <circle
     id="path122-64-00"
     cx="783.13434"
     cy="369.40298"
     r="13.298508" />
  <circle
     id="path122-64-2"
     cx="580.70148"
     cy="555.58209"
     r="13.298508" />
  <circle
     id="path122-64-10"
     cx="410.77609"
     cy="156.62685"
     r="13.298508" />
  </g>
  <g id="text" font-size="21.33333333px" line-height="1.25" font-family="Cambria Math" text-align="center" text-anchor="middle" fill="#000000" fill-opacity="1">
  <text
     x="249.58568"
     y="524.74457"
     id="west_south_america_text"></text>
  <text
     x="307.01248"
     y="457.93069"
     id="brazil_text"></text>
  <text
     x="224.18536"
     y="393.87772"
     id="venezuela_text"></text>
  <text
     x="248.85457"
     y="264.66742"
     id="east_coast_text"></text>
  <text
     x="167.86293"
     y="243.13239"
     id="western_united_states_text"></text>
  <text
     x="166.75858"
     y="161.40965"
     id="canada_text"></text>
  <text
     x="65.157326"
     y="129.38316"
     id="alaska_text"></text>
  <text
     x="504.69315"
     y="577.20166"
     id="south_africa_text"></text>
  <text
     x="558.2547"
     y="450.75232"
     id="east_africa_text"></text>
  <text
     x="452.23599"
     y="413.20404"
     id="north_west_africa_text"></text>
  <text
     x="516.289"
     y="363.50778"
     id="egypt_text"></text>
  <text
     x="415.38803"
     y="224.28703"
     id="great_britain_text"></text>
  <text
     x="478.74066"
     y="231.53659"
     id="western_europe_text"></text>
  <text
     x="506.31308"
     y="278.76089"
     id="southern_europe_text"></text>
  <text
     x="575.37225"
     y="191.77959"
     id="ukraine_text"></text>
  <text
     x="394.25702"
     y="90.178329"
     id="greenland_text"></text>
  <text
     x="683.59973"
     y="173.55762"
     id="ural_text"></text>
  <text
     x="659.8559"
     y="255.28038"
     id="afghanistan_text"></text>
  <text
     x="639.97742"
     y="343.62927"
     id="south_asia_text"></text>
  <text
     x="767.53113"
     y="299.4548"
     id="china_text"></text>
  <text
     x="773.60516"
     y="140.97896"
     id="russia_text"></text>
  <text
     x="840.41901"
     y="221.04517"
     id="central_east_asia_text"></text>
  <text
     x="852.01483"
     y="550.69702"
     id="australian_territory_text"></text>
  <text
     x="805.07947"
     y="453.51324"
     id="indonesia_text"></text>
  <text
     x="924.35046"
     y="454.61758"
     id="new_guinea_text"></text>
  <text
     x="233.37935"
     y="191.89421"
     id="ontario_text"></text>
  <text
     x="203.8271"
     y="320.44644"
     id="central_america_text"></text>
  <text
     x="579.1405"
     y="562.77478"
     id="madagascar_text"></text>
  <text
     x="939.67786"
     y="129.8345"
     id="kamchatka_text"></text>
  <text
     x="917.51367"
     y="273.16287"
     id="japan_text"></text>
  <text
     x="783.05096"
     y="375.11807"
     id="siam_text"></text>
  <text
     x="480.1405"
     y="159.38675"
     id="scandinavia_text"></text>
  <text
     x="410.69281"
     y="163.81958"
     id="iceland_text"></text>
   </g>
</svg>
